<svg width="172" height="57" viewBox="0 0 172 57" fill="none" xmlns="http://www.w3.org/2000/svg">
<rect width="172" height="57" rx="10" fill="#141414"/>
<path d="M44.1539 27.386C44.1242 23.8568 47.0598 22.1416 47.1887 22.0627C45.5226 19.6574 42.944 19.3222 42.0415 19.2926C39.8794 19.0659 37.7769 20.584 36.676 20.584C35.5554 20.584 33.8495 19.3222 32.0247 19.3518C29.6742 19.3912 27.4626 20.7417 26.2625 22.8513C23.7732 27.1395 25.6278 33.4486 28.018 36.9186C29.218 38.6142 30.6065 40.5168 32.4412 40.4478C34.2264 40.3787 34.9008 39.3141 37.0529 39.3141C39.1951 39.3141 39.8199 40.4478 41.6844 40.4083C43.6085 40.3787 44.8085 38.7029 45.9688 36.9876C47.3474 35.0456 47.9028 33.1233 47.9226 33.0247C47.873 33.005 44.1936 31.6052 44.1539 27.386Z" fill="white"/>
<path d="M40.6331 17.0155C41.5951 15.8227 42.2497 14.1962 42.0712 12.54C40.6827 12.5992 38.9372 13.4963 37.9355 14.6694C37.0528 15.7044 36.2594 17.3901 36.4578 18.9773C38.0248 19.0956 39.6314 18.1886 40.6331 17.0155Z" fill="white"/>
<path d="M70.0588 34.7672H67.5595L66.1909 30.4889H61.4304L60.1312 34.7672H57.7014L62.4123 20.207H65.3281L70.0588 34.7672ZM65.7843 28.6947L64.5446 24.8994C64.4156 24.5051 64.1677 23.5982 63.8107 22.1589H63.7611C63.6123 22.78 63.3842 23.6967 63.0668 24.8994L61.847 28.6947H65.7843Z" fill="white"/>
<path d="M82.1682 29.3948C82.1682 31.179 81.6822 32.5887 80.7003 33.6238C79.8276 34.5505 78.7367 35.0039 77.4474 35.0039C76.049 35.0039 75.0473 34.511 74.4324 33.5154V39.026H72.0819V27.7189C72.0819 26.5951 72.0522 25.4516 71.9927 24.2686H74.0555L74.1845 25.9346H74.2241C75.0076 24.6827 76.1977 24.0518 77.7846 24.0518C79.0342 24.0518 80.0656 24.5447 80.8987 25.5206C81.7516 26.5064 82.1682 27.7879 82.1682 29.3948ZM79.778 29.4736C79.778 28.4484 79.5499 27.6105 79.0838 26.95C78.578 26.2599 77.8937 25.9149 77.0407 25.9149C76.4655 25.9149 75.9399 26.1121 75.4638 26.4867C74.9977 26.8711 74.6803 27.364 74.5415 27.9851C74.4721 28.271 74.4324 28.5075 74.4324 28.6948V30.4496C74.4324 31.2086 74.6704 31.8592 75.1366 32.3817C75.6027 32.9042 76.2176 33.1703 76.9713 33.1703C77.854 33.1703 78.5383 32.8253 79.0342 32.155C79.5301 31.4748 79.778 30.5876 79.778 29.4736Z" fill="white"/>
<path d="M94.3074 29.3948C94.3074 31.179 93.8214 32.5887 92.8396 33.6238C91.9668 34.5505 90.8759 35.0039 89.5866 35.0039C88.1882 35.0039 87.1865 34.511 86.5716 33.5154V39.026H84.2212V27.7189C84.2212 26.5951 84.1914 25.4516 84.1319 24.2686H86.1948L86.3237 25.9346H86.3634C87.1469 24.6827 88.337 24.0518 89.9238 24.0518C91.1734 24.0518 92.2048 24.5447 93.0379 25.5206C93.8908 26.5064 94.3074 27.7879 94.3074 29.3948ZM91.9172 29.4736C91.9172 28.4484 91.6891 27.6105 91.223 26.95C90.7172 26.2599 90.0329 25.9149 89.18 25.9149C88.6047 25.9149 88.0791 26.1121 87.6031 26.4867C87.1369 26.8711 86.8295 27.364 86.6807 27.9851C86.6113 28.271 86.5716 28.5075 86.5716 28.6948V30.4496C86.5716 31.2086 86.8097 31.8592 87.2758 32.3817C87.7419 32.9042 88.3568 33.1703 89.1105 33.1703C89.9932 33.1703 90.6874 32.8253 91.1734 32.155C91.6792 31.4748 91.9172 30.5876 91.9172 29.4736Z" fill="white"/>
<path d="M107.894 30.686C107.894 31.9281 107.458 32.9336 106.595 33.7124C105.643 34.5602 104.314 34.9841 102.608 34.9841C101.031 34.9841 99.7718 34.6785 98.8197 34.0771L99.3652 32.1351C100.397 32.7365 101.527 33.0421 102.757 33.0421C103.64 33.0421 104.334 32.8449 104.82 32.4506C105.316 32.0563 105.564 31.5239 105.564 30.8634C105.564 30.272 105.355 29.7791 104.959 29.3749C104.552 28.9707 103.878 28.5961 102.936 28.2511C100.347 27.2949 99.0676 25.9049 99.0676 24.0812C99.0676 22.8884 99.5239 21.9124 100.426 21.1435C101.329 20.3845 102.529 20 104.026 20C105.355 20 106.466 20.2267 107.349 20.6901L106.754 22.5828C105.921 22.1392 104.988 21.9124 103.937 21.9124C103.114 21.9124 102.459 22.1195 101.993 22.5138C101.607 22.8785 101.408 23.3123 101.408 23.8347C101.408 24.4065 101.636 24.8895 102.083 25.2543C102.469 25.5993 103.183 25.9739 104.215 26.3781C105.474 26.8808 106.397 27.4723 106.992 28.1525C107.597 28.8327 107.894 29.6805 107.894 30.686Z" fill="white"/>
<path d="M115.67 26.0233H113.081V31.1199C113.081 32.4113 113.538 33.0619 114.45 33.0619C114.867 33.0619 115.214 33.0225 115.491 32.9534L115.561 34.7279C115.095 34.8955 114.49 34.9842 113.736 34.9842C112.804 34.9842 112.09 34.6983 111.564 34.1364C111.038 33.5745 110.781 32.6281 110.781 31.3072V26.0135H109.243V24.2686H110.781V22.3463L113.081 21.6562V24.2686H115.67V26.0233Z" fill="white"/>
<path d="M127.313 29.4341C127.313 31.0508 126.847 32.3718 125.925 33.4068C124.953 34.4715 123.664 35.0038 122.057 35.0038C120.51 35.0038 119.27 34.4912 118.348 33.4759C117.425 32.4605 116.969 31.1691 116.969 29.6115C116.969 27.985 117.445 26.6542 118.387 25.6191C119.339 24.584 120.619 24.0615 122.225 24.0615C123.773 24.0615 125.022 24.5741 125.964 25.5994C126.867 26.5852 127.313 27.8667 127.313 29.4341ZM124.883 29.4834C124.883 28.5173 124.675 27.6991 124.259 27.009C123.763 26.1711 123.059 25.7571 122.146 25.7571C121.204 25.7571 120.48 26.1711 119.994 27.009C119.568 27.6991 119.369 28.537 119.369 29.5327C119.369 30.4988 119.577 31.3268 119.994 32.007C120.5 32.8449 121.214 33.259 122.126 33.259C123.019 33.259 123.723 32.8351 124.239 31.9873C124.665 31.2775 124.883 30.4495 124.883 29.4834Z" fill="white"/>
<path d="M134.95 26.3191C134.722 26.2797 134.474 26.2599 134.206 26.2599C133.383 26.2599 132.738 26.5655 132.292 27.1866C131.905 27.7288 131.707 28.4287 131.707 29.2567V34.7673H129.356V27.571C129.356 26.3585 129.336 25.2544 129.287 24.2686H131.33L131.419 26.2797H131.488C131.736 25.5896 132.123 25.0277 132.659 24.6137C133.184 24.2391 133.75 24.0518 134.355 24.0518C134.573 24.0518 134.771 24.0715 134.94 24.0912L134.95 26.3191Z" fill="white"/>
<path d="M145.443 29.0204C145.443 29.4345 145.413 29.7894 145.353 30.0752H138.312C138.342 31.1103 138.679 31.9088 139.333 32.451C139.929 32.934 140.692 33.1805 141.634 33.1805C142.676 33.1805 143.628 33.0129 144.481 32.6876L144.848 34.3043C143.846 34.738 142.666 34.9549 141.307 34.9549C139.671 34.9549 138.381 34.4719 137.449 33.5157C136.517 32.5594 136.051 31.268 136.051 29.6612C136.051 28.0839 136.487 26.763 137.36 25.7082C138.272 24.5844 139.502 24.0225 141.049 24.0225C142.567 24.0225 143.727 24.5844 144.501 25.7082C145.125 26.6151 145.443 27.7093 145.443 29.0204ZM143.201 28.4191C143.221 27.729 143.062 27.1277 142.745 26.625C142.338 25.9743 141.714 25.649 140.881 25.649C140.117 25.649 139.492 25.9645 139.016 26.5954C138.629 27.0981 138.391 27.7093 138.322 28.4092L143.201 28.4191Z" fill="white"/>
</svg>
