<svg width="320" height="85" viewBox="0 0 320 85" fill="none" xmlns="http://www.w3.org/2000/svg">
<g clip-path="url(#clip0_174_71)">
<path d="M122.01 19.7904C123.083 20.2529 124.032 20.9621 124.78 21.8604C125.403 22.6118 125.899 23.4595 126.25 24.3704C126.64 25.3634 126.831 26.4236 126.81 27.4904C126.794 28.9526 126.427 30.3897 125.74 31.6804C124.983 33.077 123.702 34.1164 122.18 34.5704C123.392 34.9895 124.419 35.8213 125.08 36.9204C125.751 38.3745 126.053 39.9716 125.96 41.5704V43.5704C125.933 44.4966 125.987 45.4234 126.12 46.3404C126.172 46.6974 126.302 47.0387 126.5 47.3404C126.695 47.6486 126.954 47.9113 127.26 48.1104V48.8604H120.44C120.26 48.2004 120.12 47.6604 120.05 47.2504C119.89 46.4092 119.8 45.5563 119.78 44.7004V41.9204C119.903 40.5788 119.548 39.2369 118.78 38.1304C117.759 37.3781 116.49 37.0421 115.23 37.1904H109.23V48.8604H103.23V19.0704H117.44C118.994 19.0301 120.543 19.2741 122.01 19.7904ZM109.23 24.1904V32.1904H115.88C116.903 32.2453 117.925 32.0816 118.88 31.7104C119.479 31.3945 119.97 30.907 120.29 30.3104C120.61 29.6956 120.739 28.999 120.66 28.3104C120.726 27.6243 120.605 26.9331 120.31 26.3104C120.017 25.6788 119.553 25.1418 118.97 24.7604C118.072 24.3599 117.091 24.1815 116.11 24.2404L109.23 24.1904ZM142.48 48.7904H136.33V19.0204H142.48V48.7904ZM152.27 19.0204H158.73L170.48 39.7804V19.0204H176.23V48.7904H170.05L158.05 27.6504V48.7904H152.3L152.27 19.0204ZM206.03 28.3004C205.85 27.3621 205.441 26.4827 204.84 25.7404C204.244 24.9982 203.475 24.4144 202.6 24.0404C201.528 23.5879 200.373 23.3632 199.21 23.3804C198.09 23.3509 196.977 23.5802 195.96 24.0504C194.943 24.5224 194.05 25.2242 193.35 26.1004C191.655 28.4561 190.854 31.338 191.09 34.2304C191.09 37.8104 191.92 40.4704 193.58 41.9904C195.101 43.4607 197.134 44.2819 199.25 44.2804C201.113 44.3546 202.934 43.7143 204.34 42.4904C205.682 41.2604 206.546 39.5957 206.78 37.7904H199.96V32.7904H212.29V48.7904H208.1L207.48 45.0704C206.574 46.2287 205.494 47.2405 204.28 48.0704C202.457 49.1161 200.38 49.6354 198.28 49.5704C196.471 49.6262 194.672 49.2848 193.01 48.5704C191.346 47.8611 189.858 46.7961 188.65 45.4504C187.291 43.9274 186.247 42.1497 185.58 40.2204C184.909 38.2949 184.624 36.2561 184.74 34.2204C184.51 29.977 185.916 25.807 188.67 22.5704C189.991 21.1242 191.612 19.9843 193.42 19.2304C195.225 18.4862 197.17 18.1449 199.12 18.2304C202.388 18.0692 205.605 19.0917 208.18 21.1104C210.38 22.8833 211.793 25.4525 212.11 28.2604L206.03 28.3004ZM256.03 24.3004H240.41V30.5704H254.77V35.7404H240.41V43.3904H256.83V48.7604H234.37V18.9904H256.07L256.03 24.3004ZM265.68 18.9404H271.86V43.3404H286.66V48.7104H265.72L265.68 18.9404ZM312.21 19.5804C314.254 20.2905 316.01 21.6496 317.21 23.4504C318.219 24.8966 318.933 26.5278 319.31 28.2504C319.67 29.873 319.861 31.5285 319.88 33.1904C319.97 36.6728 319.154 40.1189 317.51 43.1904C316.549 44.961 315.107 46.4238 313.35 47.4104C311.592 48.3927 309.591 48.8572 307.58 48.7504H294.96V18.9804H307.66C309.213 18.9721 310.759 19.1876 312.25 19.6204L312.21 19.5804ZM300.96 24.1004V43.5704H306.63C307.979 43.6273 309.309 43.2332 310.41 42.4504C311.513 41.6644 312.325 40.5359 312.72 39.2404C313.418 37.4296 313.757 35.5006 313.72 33.5604C313.859 31.1447 313.373 28.7339 312.31 26.5604C311.37 24.9337 309.493 24.1204 306.68 24.1204L300.96 24.1004Z" fill="url(#paint0_linear_174_71)"/>
<path d="M67.78 9.80989C49.6 -0.810107 25.14 21.8099 20.23 38.9599C18.1945 45.7133 17.5148 52.8027 18.23 59.8199C16.9993 52.7824 17.3407 45.5598 19.23 38.6699C23.59 20.8799 49.71 -2.43011 67.78 9.80989ZM62.34 6.80989C61.4846 6.49554 60.605 6.25139 59.71 6.07988C58.8191 5.87972 57.9177 5.72949 57.01 5.62988C53.3406 5.35546 49.6536 5.82485 46.17 7.00989C42.6665 8.1151 39.3444 9.72899 36.31 11.7999C33.2433 13.8207 30.4183 16.1861 27.89 18.8499C25.3395 21.4935 23.0984 24.419 21.21 27.5699C19.2921 30.703 17.7705 34.062 16.68 37.5699C14.6511 44.6492 14.4686 52.1301 16.15 59.2999C14.976 52.1265 15.4931 44.7782 17.66 37.8399C19.9889 31.0352 23.8046 24.835 28.83 19.6899C31.2713 17.05 34.0094 14.7011 36.99 12.6899C39.9236 10.6524 43.1192 9.02096 46.49 7.83989C49.816 6.52969 53.3955 5.98952 56.96 6.25989C60.5417 6.50071 64.0223 7.55034 67.14 9.32988C65.6518 8.30008 64.0389 7.4634 62.34 6.83989V6.80989ZM59.66 5.71988C58.75 5.45234 57.8251 5.23863 56.89 5.07988C55.9585 4.8801 55.0118 4.75967 54.06 4.71988C50.2392 4.61092 46.4332 5.23904 42.85 6.56989C35.6956 9.27477 29.2886 13.6455 24.16 19.3199C21.5764 22.1501 19.3065 25.2515 17.39 28.5699C15.4147 31.8415 13.9226 35.3814 12.96 39.0799C12.0288 42.8001 11.7213 46.649 12.05 50.4699C12.4031 54.2533 13.3867 57.951 14.96 61.4099C12.2904 54.3428 11.9402 46.6093 13.96 39.3299C14.9967 35.747 16.5103 32.3196 18.46 29.1399C20.3585 25.923 22.6053 22.925 25.16 20.1999C30.1143 14.6213 36.2921 10.2643 43.21 7.46988C46.6618 6.11487 50.3419 5.43589 54.05 5.46988C54.9776 5.44683 55.9053 5.51382 56.82 5.66989C57.7461 5.76981 58.6648 5.93015 59.57 6.14989C61.3802 6.62634 63.1337 7.2969 64.8 8.14989C63.1767 7.14194 61.433 6.34231 59.61 5.76988L59.66 5.71988ZM54.74 4.10988C50.6743 3.54791 46.536 3.84083 42.59 4.96988C34.7132 7.4084 27.625 11.8946 22.05 17.9699C19.276 20.9739 16.8937 24.3172 14.96 27.9199C12.9093 31.4974 11.4219 35.3695 10.55 39.3999C9.71107 43.4365 9.57911 47.5881 10.16 51.6699C10.7361 55.7006 12.0047 59.6014 13.91 63.1999C10.4774 55.8183 9.6081 47.5018 11.44 39.5699C12.397 35.6722 13.8985 31.9287 15.9 28.4499C17.8611 24.9603 20.2495 21.7287 23.01 18.8299C28.409 12.8986 35.2506 8.46491 42.87 5.95989C46.6846 4.68128 50.7366 4.27129 54.73 4.75989C58.7269 5.24335 62.5663 6.60967 65.97 8.75989C62.6594 6.32895 58.8037 4.74614 54.74 4.14989V4.10988ZM53.81 3.69989C49.6247 3.03195 45.3499 3.17794 41.22 4.12988C32.9317 6.17627 25.3871 10.5152 19.45 16.6499C13.4197 22.7717 9.36189 30.5599 7.8 39.0099C7.04513 43.2002 6.96411 47.4841 7.56 51.6999C8.19216 55.8843 9.50271 59.9375 11.44 63.6999C8.04339 56.0005 7.11755 47.4374 8.79 39.1899C10.4712 31.0199 14.5031 23.5192 20.39 17.6099C26.1169 11.5691 33.4071 7.23508 41.45 5.08989C45.4638 4.01222 49.6524 3.74703 53.77 4.30989C57.8869 4.87281 61.8506 6.24954 65.43 8.35988C61.9396 5.98964 57.974 4.40957 53.81 3.72989V3.69989ZM53.71 3.16989C49.4591 2.27404 45.08 2.16557 40.79 2.84989C32.1692 4.34612 24.1859 8.36562 17.85 14.3999C11.4323 20.4191 7.07873 28.3108 5.41 36.9499C4.57724 41.2327 4.42873 45.6205 4.97 49.9499C5.58784 54.2371 6.90892 58.3929 8.88 62.2499C7.14784 58.3249 6.05081 54.1494 5.63 49.8799C5.22014 45.6276 5.49019 41.3372 6.43 37.1699C7.32149 33.0041 8.84941 29.0005 10.96 25.2999C13.0643 21.6353 15.6995 18.3025 18.78 15.4099C24.9031 9.50301 32.6074 5.49802 40.96 3.87988C45.1256 3.11987 49.3944 3.11987 53.56 3.87988C57.762 4.67833 61.784 6.23359 65.43 8.46988C61.8969 5.97883 57.9181 4.18975 53.71 3.19989V3.16989ZM52.84 2.35988C48.4861 1.3038 43.9782 1.03624 39.53 1.56989C30.576 2.76509 22.2016 6.66965 15.53 12.7599C8.78374 18.8545 4.31496 27.0655 2.86 36.0399C2.13378 40.4757 2.06639 44.9944 2.66 49.4499C3.31357 53.8776 4.6636 58.1741 6.66 62.1799C3.18903 53.9766 2.23529 44.9265 3.92 36.1799C4.69622 31.8796 6.16175 27.7329 8.26 23.8999C10.4156 20.0961 13.1672 16.6625 16.41 13.7299C22.8711 7.77652 30.9641 3.89019 39.65 2.56989C43.9892 1.93395 48.4065 2.06596 52.7 2.95989C57.0036 3.92957 61.1007 5.65643 64.8 8.05989C61.1889 5.44208 57.1184 3.52554 52.8 2.40988L52.84 2.35988ZM53.25 1.67989C48.7661 0.27367 44.0568 -0.27258 39.37 0.0698868C29.9142 0.883241 20.9674 4.70308 13.84 10.9699C10.2813 14.083 7.27846 17.7791 4.96 21.8999C2.65314 26.0414 1.13413 30.5746 0.479996 35.2699C-0.196832 39.9381 -0.163117 44.6818 0.579996 49.3399C1.35107 53.9569 2.8497 58.4224 5.02 62.5699C1.15746 54.0723 -0.0787175 44.6147 1.47 35.4099C2.19615 30.8792 3.71612 26.5123 5.96 22.5099C8.2537 18.5315 11.2056 14.971 14.69 11.9799C21.6061 5.85603 30.27 2.0575 39.46 1.11989C44.0331 0.67804 48.6484 1.09176 53.07 2.33989C57.5372 3.64114 61.7458 5.70485 65.51 8.43988C61.86 5.47941 57.7072 3.19977 53.25 1.70989V1.67989Z" fill="url(#paint1_linear_174_71)"/>
<path d="M15.28 74.3402C33.47 84.9602 57.92 62.3402 62.84 45.1802C64.8897 38.4261 65.5697 31.3306 64.84 24.3102C66.0858 31.3534 65.7442 38.5858 63.84 45.4802C59.48 63.2702 33.36 86.5702 15.28 74.3402ZM20.73 77.3402C21.5794 77.6729 22.4607 77.9175 23.36 78.0702C24.247 78.2897 25.1497 78.4401 26.06 78.5202C29.7283 78.812 33.4175 78.3491 36.9 77.1602C40.4051 76.05 43.7275 74.4292 46.76 72.3502C49.8265 70.3484 52.6518 67.9995 55.18 65.3502C57.7342 62.6878 59.9754 59.742 61.86 56.5702C63.7816 53.439 65.3034 50.0796 66.39 46.5702C68.4408 39.4752 68.637 31.9727 66.96 24.7802C68.1236 31.9507 67.6067 39.2934 65.45 46.2302C63.1149 53.0201 59.2995 59.206 54.28 64.3402C51.8454 66.9793 49.114 69.3282 46.14 71.3402C43.1625 73.3797 39.9233 75.0078 36.51 76.1802C33.1878 77.5356 29.5998 78.1137 26.02 77.8702C22.4366 77.6308 18.9551 76.5774 15.84 74.7902C17.3481 75.8431 18.9934 76.6843 20.73 77.2902V77.3402ZM23.41 78.4502C24.3178 78.713 25.2392 78.9267 26.17 79.0902C27.0978 79.2883 28.0417 79.4021 28.99 79.4302C32.8184 79.5423 36.6322 78.9107 40.22 77.5702C47.3926 74.8582 53.8164 70.4774 58.96 64.7902C61.5252 61.9676 63.7783 58.8764 65.68 55.5702C67.6573 52.2829 69.1557 48.7305 70.13 45.0202C71.0481 41.2978 71.3521 37.4505 71.03 33.6302C70.6641 29.8275 69.6742 26.1111 68.1 22.6302C70.78 29.6951 71.1304 37.4319 69.1 44.7102C68.0627 48.3085 66.5636 51.7572 64.64 54.9702C62.7445 58.1838 60.5046 61.1815 57.96 63.9102C52.9932 69.4976 46.8021 73.8612 39.87 76.6602C36.4182 78.0152 32.7381 78.6942 29.03 78.6602C28.1025 78.6789 27.1752 78.612 26.26 78.4602C25.3312 78.3554 24.4096 78.1951 23.5 77.9802C21.6896 77.5141 19.9383 76.8431 18.28 75.9802C19.8821 76.9982 21.6055 77.8112 23.41 78.4002V78.4502ZM28.34 80.0402C32.404 80.6179 36.5442 80.3317 40.49 79.2002C48.3598 76.7589 55.4408 72.2729 61.01 66.2002C63.8215 63.203 66.244 59.8634 68.22 56.2602C70.2707 52.6826 71.7581 48.8106 72.63 44.7802C73.459 40.7424 73.5909 36.5925 73.02 32.5102C72.4189 28.4604 71.1196 24.5457 69.18 20.9402C72.6055 28.3244 73.4644 36.6418 71.62 44.5702C70.668 48.4601 69.1733 52.1968 67.18 55.6702C65.224 59.1662 62.8352 62.4017 60.07 65.3002C54.6685 71.2216 47.8319 75.6507 40.22 78.1602C36.4054 79.4388 32.3534 79.8488 28.36 79.3602C24.3631 78.8767 20.5237 77.5104 17.12 75.3602C20.4229 77.8018 24.2764 79.392 28.34 79.9902V80.0402ZM29.24 80.4702C33.4359 81.1281 37.7186 80.9822 41.86 80.0402C50.151 77.9795 57.6929 73.6228 63.62 67.4702C69.6452 61.3632 73.7059 53.5935 75.28 45.1602C76.0311 40.9626 76.1088 36.6722 75.51 32.4502C74.8709 28.2688 73.5642 24.2172 71.64 20.4502C75.0254 28.1529 75.9441 36.7146 74.27 44.9602C72.5998 53.1408 68.5707 60.6532 62.68 66.5702C56.9562 72.5849 49.693 76.9152 41.68 79.0902C37.6601 80.1545 33.4683 80.4061 29.35 79.8302C25.2291 79.2594 21.2644 77.8687 17.69 75.7402C21.1554 78.1188 25.0963 79.7156 29.24 80.4202V80.4702ZM29.37 81.0002C33.6175 81.8959 37.9933 82.0044 42.28 81.3202C50.902 79.8079 58.8799 75.7668 65.2 69.7102C71.6224 63.7109 75.9777 55.8301 77.64 47.2002C78.4711 42.9173 78.6229 38.5303 78.09 34.2002C77.4722 29.9066 76.1511 25.7442 74.18 21.8802C75.8985 25.8169 76.9949 29.9968 77.43 34.2702C77.8399 38.5225 77.5698 42.8129 76.63 46.9802C75.7456 51.1373 74.2279 55.1339 72.13 58.8302C70.0164 62.5021 67.3635 65.836 64.26 68.7202C58.1354 74.6324 50.4272 78.6411 42.07 80.2602C37.8968 81.0103 33.6232 81.0103 29.45 80.2602C25.2726 79.463 21.2724 77.9218 17.64 75.7102C21.1862 78.1975 25.1793 79.9767 29.4 80.9502L29.37 81.0002ZM30.24 81.8102C34.5917 82.8597 39.0963 83.1205 43.54 82.5802C52.495 81.3953 60.8714 77.4933 67.54 71.4002C74.262 65.303 78.7267 57.1135 80.21 48.1602C80.9329 43.7239 80.9969 39.2052 80.4 34.7502C79.7462 30.3161 78.3962 26.0131 76.4 22.0002C79.8307 30.1898 80.7699 39.2094 79.1 47.9302C78.2933 52.2372 76.8082 56.3888 74.7 60.2302C72.6029 64.0319 69.9009 67.4668 66.7 70.4002C60.2504 76.3557 52.1545 80.2277 43.47 81.5102C39.1479 82.147 34.7475 82.0184 30.47 81.1302C26.1652 80.1588 22.0679 78.4285 18.37 76.0202C21.9325 78.6596 25.959 80.6066 30.24 81.7602V81.8102ZM29.83 82.4702C34.3079 83.889 39.0151 84.4422 43.7 84.1002C53.1589 83.2723 62.1065 79.4466 69.24 73.1802C72.7913 70.06 75.7931 66.3652 78.12 62.2502C80.4564 58.1196 82.0123 53.5942 82.71 48.9002C83.3735 44.2275 83.3364 39.482 82.6 34.8202C81.8412 30.1937 80.342 25.7198 78.16 21.5702C82.0276 30.0627 83.2641 39.5187 81.71 48.7202C80.973 53.2633 79.4394 57.6405 77.18 61.6502C74.8532 65.6138 71.8748 69.1568 68.37 72.1302C61.4607 78.2558 52.8048 82.0609 43.62 83.0102C39.047 83.4724 34.4279 83.0584 30.01 81.7902C25.539 80.5085 21.3282 78.4505 17.57 75.7102C21.2095 78.6814 25.3656 80.9561 29.83 82.4202V82.4702Z" fill="url(#paint2_linear_174_71)"/>
<path d="M59.2 50.4503C60.1497 49.4617 60.988 48.3718 61.7 47.2003C65.88 40.2003 65.75 28.8703 58.86 22.0203C55.28 18.6606 50.5972 16.7227 45.69 16.5703H20.11V64.8503H35.96V54.8503H45.25L51.45 65.2903H68.49L59.2 50.4503ZM36.86 29.8703H43.96C44.829 29.8684 45.6895 30.0419 46.49 30.3803C47.2929 30.7116 48.0207 31.2013 48.63 31.8203C49.2432 32.4399 49.7291 33.1738 50.06 33.9803C50.4011 34.8006 50.5712 35.682 50.56 36.5703C50.5688 37.4413 50.4021 38.3051 50.07 39.1103C49.734 39.9136 49.2449 40.6439 48.63 41.2603C48.0184 41.879 47.2913 42.3716 46.49 42.7103C45.6912 43.0417 44.8348 43.2116 43.97 43.2103H36.86V29.8703Z" fill="white"/>
<path d="M59.2 50.4503C60.1497 49.4617 60.988 48.3718 61.7 47.2003C65.88 40.2003 65.75 28.8703 58.86 22.0203C55.28 18.6606 50.5972 16.7227 45.69 16.5703H20.11V64.8503H35.96V54.8503H45.25L51.45 65.2903H68.49L59.2 50.4503ZM36.86 29.8703H43.96C44.829 29.8684 45.6895 30.0419 46.49 30.3803C47.2929 30.7116 48.0207 31.2013 48.63 31.8203C49.2432 32.4399 49.7291 33.1738 50.06 33.9803C50.4011 34.8006 50.5712 35.682 50.56 36.5703C50.5688 37.4413 50.4021 38.3051 50.07 39.1103C49.734 39.9136 49.2449 40.6439 48.63 41.2603C48.0184 41.879 47.2913 42.3716 46.49 42.7103C45.6912 43.0417 44.8348 43.2116 43.97 43.2103H36.86V29.8703Z" fill="#072D0B"/>
<path d="M43.96 28.9799H35.96V44.0499H43.96C44.9476 44.0557 45.9265 43.8654 46.84 43.4899C47.7568 43.11 48.5894 42.5527 49.29 41.8499C50.0042 41.1487 50.5719 40.3125 50.96 39.3899C51.3362 38.47 51.5233 37.4837 51.51 36.4899C51.5216 35.4898 51.3347 34.4973 50.96 33.5699C50.5774 32.6576 50.0203 31.8288 49.32 31.1299C48.6116 30.4519 47.7754 29.9216 46.86 29.5699C45.944 29.1765 44.9569 28.9757 43.96 28.9799ZM43.96 42.2599H37.75V30.7699H43.96C45.4645 30.7812 46.9031 31.389 47.96 32.4599C48.5066 32.996 48.9411 33.6354 49.2381 34.341C49.5351 35.0467 49.6887 35.8043 49.69 36.5699C49.6934 37.3245 49.5473 38.0722 49.26 38.7699C48.9662 39.444 48.5452 40.0552 48.02 40.5699C47.4944 41.1076 46.865 41.5329 46.17 41.8199C45.4721 42.1192 44.7193 42.2691 43.96 42.2599ZM43.96 28.9799H35.96V44.0499H43.96C44.9476 44.0557 45.9265 43.8654 46.84 43.4899C47.7568 43.11 48.5894 42.5527 49.29 41.8499C50.0042 41.1487 50.5719 40.3125 50.96 39.3899C51.3362 38.47 51.5233 37.4837 51.51 36.4899C51.5216 35.4898 51.3347 34.4973 50.96 33.5699C50.5774 32.6576 50.0203 31.8288 49.32 31.1299C48.6116 30.4519 47.7754 29.9216 46.86 29.5699C45.944 29.1765 44.9569 28.9757 43.96 28.9799ZM43.96 42.2599H37.75V30.7699H43.96C45.4645 30.7812 46.9031 31.389 47.96 32.4599C48.5066 32.996 48.9411 33.6354 49.2381 34.341C49.5351 35.0467 49.6887 35.8043 49.69 36.5699C49.6934 37.3245 49.5473 38.0722 49.26 38.7699C48.9662 39.444 48.5452 40.0552 48.02 40.5699C47.4944 41.1076 46.865 41.5329 46.17 41.8199C45.4721 42.1192 44.7193 42.2691 43.96 42.2599ZM60.3 50.5699C61.1107 49.6718 61.8371 48.701 62.47 47.6699C66.77 40.5199 66.84 28.6699 59.47 21.3899C55.7348 17.8497 50.8243 15.8129 45.68 15.6699H19.22V65.7299H36.83V55.7299H44.74L50.96 66.1699H70.11L60.3 50.5699ZM35.05 63.9899H20.96V17.4999H45.66C50.3543 17.6255 54.8358 19.4851 58.24 22.7199C64.88 29.2999 64.81 40.3299 60.94 46.7899C60.2591 47.9018 59.4612 48.9377 58.56 49.8799L58.06 50.3799L66.96 64.4999H51.96L45.76 54.0599H35.14L35.05 63.9899ZM51.47 36.5699C51.4724 35.5817 51.2786 34.6028 50.9 33.6899C50.5311 32.7722 49.98 31.9387 49.28 31.2399C48.5911 30.5294 47.7687 29.9619 46.86 29.5699C45.9503 29.1923 44.9749 28.9986 43.99 28.9999H35.96V44.0699H43.96C44.9476 44.0757 45.9265 43.8854 46.84 43.5099C47.7568 43.13 48.5894 42.5727 49.29 41.8699C49.9807 41.1676 50.5246 40.3347 50.89 39.4199C51.2687 38.5172 51.4658 37.5488 51.47 36.5699ZM43.96 42.2599H37.75V30.7699H43.96C45.4645 30.7812 46.9031 31.389 47.96 32.4599C48.5066 32.996 48.9411 33.6354 49.2381 34.341C49.5351 35.0467 49.6887 35.8043 49.69 36.5699C49.6934 37.3245 49.5473 38.0722 49.26 38.7699C48.9662 39.444 48.5452 40.0552 48.02 40.5699C47.4944 41.1076 46.865 41.5329 46.17 41.8199C45.4721 42.1192 44.7193 42.2691 43.96 42.2599Z" fill="#22A233"/>
<path d="M49.69 36.5695C49.6934 37.3241 49.5473 38.0718 49.26 38.7695C48.9662 39.4437 48.5452 40.0548 48.02 40.5695C47.4944 41.1072 46.865 41.5325 46.17 41.8195C45.4807 42.1113 44.7385 42.2577 43.99 42.2495H37.75V30.7695H43.96C45.4645 30.7808 46.9031 31.3887 47.96 32.4595C48.5066 32.9956 48.9411 33.635 49.2381 34.3407C49.5351 35.0463 49.6887 35.804 49.69 36.5695Z" fill="white"/>
<path d="M104.65 63.3104C104.672 63.5816 104.769 63.8414 104.93 64.0604C105.102 64.227 105.308 64.3537 105.535 64.4315C105.761 64.5093 106.002 64.5362 106.24 64.5104C106.541 64.5191 106.842 64.4786 107.13 64.3904C107.321 64.3467 107.491 64.2381 107.612 64.0832C107.732 63.9283 107.795 63.7365 107.79 63.5404C107.791 63.4271 107.762 63.3156 107.706 63.2172C107.649 63.1188 107.568 63.0371 107.47 62.9804C107.155 62.819 106.818 62.7044 106.47 62.6404L105.68 62.4704C105.116 62.3736 104.572 62.1844 104.07 61.9104C103.821 61.7305 103.623 61.49 103.493 61.2117C103.364 60.9334 103.308 60.6266 103.33 60.3204C103.322 60.0115 103.384 59.7047 103.51 59.4227C103.636 59.1406 103.824 58.8904 104.06 58.6904C104.656 58.2074 105.415 57.9712 106.18 58.0304C106.897 58.0116 107.6 58.2295 108.18 58.6504C108.455 58.8579 108.677 59.1272 108.828 59.4364C108.979 59.7457 109.055 60.0862 109.05 60.4304H107.56C107.557 60.2348 107.5 60.0437 107.396 59.878C107.292 59.7122 107.145 59.5782 106.97 59.4904C106.684 59.3627 106.373 59.3012 106.06 59.3104C105.711 59.289 105.364 59.3689 105.06 59.5404C104.947 59.6114 104.855 59.7104 104.792 59.8279C104.728 59.9453 104.697 60.0772 104.7 60.2104C104.696 60.3319 104.727 60.4518 104.789 60.5563C104.851 60.6608 104.942 60.7455 105.05 60.8004C105.373 60.9326 105.708 61.0331 106.05 61.1004L107.33 61.4004C107.787 61.4865 108.221 61.6708 108.6 61.9404C108.82 62.1188 108.993 62.3472 109.106 62.6064C109.219 62.8656 109.269 63.1482 109.25 63.4304C109.255 63.7488 109.189 64.0642 109.056 64.3533C108.922 64.6424 108.726 64.8978 108.48 65.1004C107.852 65.5753 107.075 65.8094 106.29 65.7604C105.479 65.8058 104.676 65.5769 104.01 65.1104C103.74 64.8968 103.524 64.6225 103.38 64.3097C103.235 63.997 103.167 63.6546 103.18 63.3104H104.65Z" fill="#161616"/>
<path d="M116.68 58.25V59.57H114.48V65.57H112.96V59.57H110.76V58.28L116.68 58.25Z" fill="#161616"/>
<path d="M119.96 58.25H121.69L124.26 65.57H122.6L122.11 64.07H119.42L118.96 65.57H117.36L119.96 58.25ZM119.86 62.8H121.74L120.81 59.92L119.86 62.8Z" fill="#161616"/>
<path d="M129.45 58.25H131.18L128.73 62.83V65.57H127.2V62.83L124.67 58.25H126.47L127.96 61.44L129.45 58.25Z" fill="#161616"/>
<path d="M137.44 59.0103C137.732 58.712 138.083 58.4779 138.47 58.323C138.858 58.168 139.273 58.0956 139.69 58.1103C140.203 58.065 140.719 58.1525 141.188 58.3644C141.658 58.5763 142.065 58.9055 142.37 59.3203C142.663 59.7204 142.836 60.1955 142.87 60.6903H141.34C141.273 60.3992 141.143 60.1262 140.96 59.8903C140.807 59.7251 140.619 59.597 140.409 59.5155C140.2 59.4341 139.974 59.4015 139.75 59.4203C139.496 59.4134 139.244 59.4714 139.018 59.5886C138.793 59.7058 138.601 59.8784 138.46 60.0903C138.115 60.6617 137.952 61.324 137.99 61.9903C137.937 62.6462 138.114 63.3001 138.49 63.8403C138.637 64.0343 138.828 64.1907 139.047 64.2967C139.266 64.4027 139.507 64.4554 139.75 64.4503C139.977 64.4661 140.205 64.4271 140.413 64.3366C140.622 64.2461 140.806 64.1068 140.95 63.9303C141.136 63.6776 141.266 63.3877 141.33 63.0803H142.85C142.75 63.8257 142.397 64.5141 141.85 65.0303C141.284 65.5399 140.541 65.8089 139.78 65.7803C139.321 65.8076 138.862 65.732 138.437 65.559C138.011 65.386 137.629 65.1199 137.32 64.7803C136.684 63.9943 136.363 62.9998 136.42 61.9903C136.383 61.4506 136.454 60.9091 136.629 60.3973C136.804 59.8856 137.08 59.414 137.44 59.0103Z" fill="#161616"/>
<path d="M150.75 64.9199C150.43 65.2191 150.051 65.4497 149.639 65.5975C149.226 65.7454 148.788 65.8075 148.35 65.7799C147.912 65.8093 147.473 65.748 147.06 65.6001C146.647 65.4521 146.269 65.2205 145.95 64.9199C145.567 64.524 145.269 64.0531 145.077 63.5369C144.884 63.0206 144.8 62.4701 144.83 61.9199C144.792 61.3689 144.873 60.8163 145.066 60.299C145.259 59.7816 145.561 59.3114 145.95 58.9199C146.269 58.6192 146.647 58.3877 147.06 58.2397C147.473 58.0917 147.912 58.0305 148.35 58.0599C148.788 58.0323 149.226 58.0944 149.639 58.2423C150.051 58.3901 150.43 58.6207 150.75 58.9199C151.138 59.3123 151.437 59.7829 151.629 60.3002C151.82 60.8175 151.899 61.3697 151.86 61.9199C151.891 62.4694 151.809 63.0195 151.618 63.5357C151.427 64.0519 151.131 64.5231 150.75 64.9199ZM149.75 63.8099C150.142 63.2529 150.332 62.5794 150.29 61.8999C150.332 61.2204 150.142 60.5468 149.75 59.9899C149.579 59.7732 149.36 59.5996 149.11 59.4832C148.86 59.3668 148.586 59.3109 148.31 59.3199C148.032 59.3085 147.756 59.3633 147.504 59.4798C147.252 59.5963 147.031 59.7712 146.86 59.9899C146.468 60.5468 146.278 61.2204 146.32 61.8999C146.278 62.5794 146.468 63.2529 146.86 63.8099C147.031 64.0286 147.252 64.2035 147.504 64.32C147.756 64.4365 148.032 64.4913 148.31 64.4799C148.593 64.4979 148.875 64.4462 149.134 64.3294C149.392 64.2126 149.617 64.0342 149.79 63.8099H149.75Z" fill="#161616"/>
<path d="M158.9 58.25H161.1V65.57H159.68V60.02C159.68 59.76 159.68 59.56 159.68 59.43L158.3 65.57H156.81L155.43 59.43C155.43 59.56 155.43 59.76 155.43 60.02V65.57H154.01V58.25H156.23L157.57 64.01L158.9 58.25Z" fill="#161616"/>
<path d="M168.45 62.4001C167.923 62.7911 167.275 62.9825 166.62 62.9401H165.09V65.5701H163.57V58.2501H166.72C167.346 58.2197 167.961 58.4188 168.45 58.8101C168.679 59.039 168.856 59.3149 168.968 59.6188C169.08 59.9226 169.125 60.2472 169.1 60.5701C169.134 60.9042 169.093 61.2417 168.981 61.5581C168.868 61.8746 168.687 62.1621 168.45 62.4001ZM167.29 59.7601C167.053 59.5878 166.763 59.503 166.47 59.5201H165.09V61.6801H166.47C166.768 61.6969 167.061 61.6004 167.29 61.4101C167.394 61.3002 167.474 61.1693 167.524 61.0263C167.574 60.8832 167.593 60.7311 167.58 60.5801C167.597 60.4304 167.579 60.2789 167.529 60.1369C167.479 59.9949 167.397 59.8661 167.29 59.7601Z" fill="#161616"/>
<path d="M171.34 58.25H172.87V64.25H176.53V65.57H171.34V58.25Z" fill="#161616"/>
<path d="M180.67 58.25H182.4L184.96 65.57H183.3L182.82 64.07H180.12L179.66 65.57H178.05L180.67 58.25ZM180.57 62.8H182.44L181.52 59.92L180.57 62.8Z" fill="#161616"/>
<path d="M188.34 65.57H186.82V58.25H188.34V65.57Z" fill="#161616"/>
<path d="M190.76 58.25H192.37L195.27 63.35V58.25H196.7V65.57H195.17L192.17 60.38V65.57H190.76V58.25Z" fill="#161616"/>
<path d="M204.48 58.25V59.57H202.28V65.57H200.74V59.57H198.54V58.28L204.48 58.25Z" fill="#161616"/>
<path d="M205.07 66.7498C205.321 66.6964 205.545 66.5545 205.7 66.3498C205.859 66.1199 205.949 65.8493 205.96 65.5698H205.1V64.0898H206.63V65.3699C206.628 65.6093 206.598 65.8476 206.54 66.0798C206.483 66.3167 206.37 66.5362 206.21 66.7198C206.037 66.9061 205.825 67.0527 205.59 67.1498C205.436 67.2259 205.27 67.2765 205.1 67.2999L205.07 66.7498Z" fill="#161616"/>
<path d="M217.24 58.4104C217.748 58.5742 218.187 58.9011 218.49 59.3404C218.741 59.6945 218.918 60.096 219.01 60.5204C219.099 60.9178 219.146 61.3233 219.15 61.7304C219.181 62.5952 218.977 63.4522 218.56 64.2104C218.321 64.645 217.965 65.0033 217.531 65.2439C217.098 65.4845 216.605 65.5977 216.11 65.5704H212.96V58.2504H216.12C216.499 58.2446 216.877 58.2986 217.24 58.4104ZM214.44 59.5704V64.3504H215.85C216.184 64.3615 216.512 64.2628 216.785 64.0696C217.058 63.8764 217.26 63.5992 217.36 63.2804C217.53 62.8372 217.611 62.365 217.6 61.8904C217.632 61.2966 217.512 60.7044 217.25 60.1704C217.092 59.9537 216.879 59.7836 216.632 59.678C216.386 59.5724 216.116 59.5353 215.85 59.5704H214.44Z" fill="#161616"/>
<path d="M226.01 58.44C226.279 58.5494 226.516 58.7248 226.7 58.95C226.85 59.1339 226.972 59.3396 227.06 59.56C227.154 59.8057 227.202 60.0669 227.2 60.33C227.191 60.6788 227.102 61.021 226.94 61.33C226.849 61.5003 226.726 61.6507 226.577 61.7726C226.427 61.8946 226.255 61.9855 226.07 62.04C226.365 62.1482 226.615 62.3525 226.78 62.62C226.952 62.9778 227.028 63.3741 227 63.77V64.26C226.978 64.4861 226.978 64.7139 227 64.94C227.013 65.0262 227.045 65.1084 227.094 65.1809C227.142 65.2534 227.206 65.3145 227.28 65.36V65.57H225.59C225.55 65.4419 225.516 65.3117 225.49 65.18C225.45 64.9724 225.43 64.7614 225.43 64.55V63.87C225.463 63.5368 225.374 63.203 225.18 62.93C224.929 62.7471 224.619 62.665 224.31 62.7H222.82V65.57H221.32V58.25H224.82C225.225 58.2357 225.629 58.3002 226.01 58.44ZM222.85 59.57V61.57H224.49C224.742 61.5842 224.995 61.5433 225.23 61.45C225.377 61.3709 225.496 61.2493 225.573 61.1013C225.65 60.9532 225.68 60.7855 225.66 60.62C225.681 60.4471 225.653 60.2717 225.579 60.1141C225.505 59.9566 225.387 59.8234 225.24 59.73C225.021 59.6284 224.781 59.5836 224.54 59.6L222.85 59.57Z" fill="#161616"/>
<path d="M231.08 65.57H229.56V58.25H231.08V65.57Z" fill="#161616"/>
<path d="M237.81 58.25H239.4L236.96 65.57H235.46L232.96 58.25H234.6L236.19 63.81L237.81 58.25Z" fill="#161616"/>
<path d="M246.75 59.57H242.87V61.13H246.43V62.4H242.87V64.29H246.96V65.57H241.41V58.25H246.78L246.75 59.57Z" fill="#161616"/>
<path d="M253.68 59.0103C253.972 58.712 254.323 58.4779 254.71 58.323C255.098 58.168 255.513 58.0956 255.93 58.1103C256.443 58.065 256.959 58.1525 257.428 58.3644C257.898 58.5763 258.305 58.9055 258.61 59.3203C258.903 59.7204 259.076 60.1955 259.11 60.6903H257.58C257.513 60.3992 257.383 60.1262 257.2 59.8903C257.047 59.7251 256.859 59.597 256.649 59.5155C256.44 59.4341 256.214 59.4015 255.99 59.4203C255.736 59.4134 255.484 59.4714 255.258 59.5886C255.033 59.7058 254.841 59.8784 254.7 60.0903C254.355 60.6617 254.192 61.324 254.23 61.9903C254.182 62.6458 254.359 63.2981 254.73 63.8403C254.877 64.0343 255.068 64.1907 255.287 64.2967C255.506 64.4027 255.747 64.4554 255.99 64.4503C256.218 64.4652 256.447 64.426 256.657 64.3356C256.868 64.2452 257.054 64.1063 257.2 63.9303C257.379 63.6744 257.505 63.3854 257.57 63.0803H259.1C258.995 63.824 258.643 64.5108 258.1 65.0303C257.534 65.5399 256.791 65.8089 256.03 65.7803C255.572 65.8055 255.113 65.7289 254.688 65.556C254.263 65.3831 253.881 65.1182 253.57 64.7803C252.937 63.9929 252.62 62.9985 252.68 61.9903C252.642 61.4522 252.711 60.912 252.883 60.4006C253.055 59.8893 253.326 59.4168 253.68 59.0103Z" fill="#161616"/>
<path d="M266.96 64.9199C266.641 65.2205 266.263 65.4521 265.85 65.6001C265.437 65.748 264.998 65.8093 264.56 65.7799C264.122 65.8093 263.683 65.748 263.27 65.6001C262.857 65.4521 262.479 65.2205 262.16 64.9199C261.779 64.5231 261.483 64.0519 261.292 63.5357C261.101 63.0195 261.019 62.4694 261.05 61.9199C261.011 61.3697 261.09 60.8175 261.281 60.3002C261.473 59.7829 261.772 59.3123 262.16 58.9199C262.479 58.6192 262.857 58.3877 263.27 58.2397C263.683 58.0917 264.122 58.0305 264.56 58.0599C264.998 58.0305 265.437 58.0917 265.85 58.2397C266.263 58.3877 266.641 58.6192 266.96 58.9199C267.348 59.3123 267.647 59.7829 267.839 60.3002C268.03 60.8175 268.109 61.3697 268.07 61.9199C268.101 62.4694 268.019 63.0195 267.828 63.5357C267.637 64.0519 267.341 64.5231 266.96 64.9199ZM265.96 63.8099C266.351 63.2529 266.542 62.5794 266.5 61.8999C266.542 61.2204 266.351 60.5468 265.96 59.9899C265.79 59.7726 265.571 59.5986 265.32 59.4821C265.07 59.3657 264.796 59.3101 264.52 59.3199C264.242 59.3085 263.966 59.3633 263.714 59.4798C263.462 59.5963 263.241 59.7712 263.07 59.9899C262.678 60.5468 262.488 61.2204 262.53 61.8999C262.488 62.5794 262.678 63.2529 263.07 63.8099C263.241 64.0286 263.462 64.2035 263.714 64.32C263.966 64.4365 264.242 64.4913 264.52 64.4799C264.808 64.5039 265.097 64.4551 265.361 64.338C265.625 64.221 265.855 64.0393 266.03 63.8099H265.96Z" fill="#161616"/>
<path d="M270.26 58.25H271.86L274.77 63.35V58.25H276.2V65.57H274.67L271.67 60.38V65.57H270.26V58.25Z" fill="#161616"/>
<path d="M278.65 58.2598H283.87V59.5698H280.17V61.2598H283.41V62.5298H280.17V65.5698H278.65V58.2598Z" fill="#161616"/>
<path d="M287.28 65.57H285.76V58.25H287.28V65.57Z" fill="#161616"/>
<path d="M294.02 58.4096C294.526 58.576 294.965 58.9024 295.27 59.3396C295.521 59.6937 295.698 60.0952 295.79 60.5196C295.879 60.917 295.926 61.3225 295.93 61.7296C295.956 62.5939 295.752 63.4496 295.34 64.2096C295.1 64.6434 294.744 65.001 294.31 65.2415C293.877 65.482 293.385 65.5957 292.89 65.5696H289.73V58.2496H292.89C293.273 58.2427 293.654 58.2967 294.02 58.4096ZM291.21 59.5696V64.3496H292.63C292.964 64.3606 293.292 64.262 293.565 64.0688C293.838 63.8756 294.04 63.5984 294.14 63.2796C294.306 62.8356 294.384 62.3635 294.37 61.8896C294.407 61.2954 294.287 60.702 294.02 60.1696C293.865 59.9529 293.653 59.7826 293.408 59.6769C293.163 59.5712 292.894 59.5341 292.63 59.5696H291.21Z" fill="#161616"/>
<path d="M303.51 59.57H299.64V61.13H303.19V62.4H299.64V64.29H303.69V65.57H298.14V58.25H303.51V59.57Z" fill="#161616"/>
<path d="M305.88 58.25H307.48L310.39 63.35V58.25H311.81V65.57H310.28L307.28 60.38V65.57H305.86L305.88 58.25Z" fill="#161616"/>
<path d="M319.59 58.25V59.57H317.4V65.57H315.86V59.57H313.66V58.28L319.59 58.25Z" fill="#161616"/>
</g>
<defs>
<linearGradient id="paint0_linear_174_71" x1="103.14" y1="33.8904" x2="319.92" y2="33.8904" gradientUnits="userSpaceOnUse">
<stop stop-color="#0D6015"/>
<stop offset="1" stop-color="#29B73D"/>
</linearGradient>
<linearGradient id="paint1_linear_174_71" x1="-3.94029e-06" y1="31.8599" x2="67.78" y2="31.8599" gradientUnits="userSpaceOnUse">
<stop stop-color="#29B73D"/>
<stop offset="1" stop-color="#29B73D"/>
</linearGradient>
<linearGradient id="paint2_linear_174_71" x1="83.18" y1="52.3002" x2="15.36" y2="52.3002" gradientUnits="userSpaceOnUse">
<stop stop-color="#29B73D"/>
<stop offset="1" stop-color="#29B73D"/>
</linearGradient>
<clipPath id="clip0_174_71">
<rect width="319.92" height="84.14" fill="white"/>
</clipPath>
</defs>
</svg>
