<svg width="172" height="57" viewBox="0 0 172 57" fill="none" xmlns="http://www.w3.org/2000/svg">
<rect width="172" height="57" rx="10" fill="#F4F4F4"/>
<path d="M85.7895 25.5499C83.0145 25.5499 80.7473 27.6636 80.7473 30.5685C80.7473 33.4615 83.0145 35.5871 85.7895 35.5871C88.5644 35.5871 90.8317 33.4615 90.8317 30.5685C90.8317 27.6636 88.5644 25.5499 85.7895 25.5499ZM85.7895 33.6151C84.2662 33.6151 82.9555 32.3634 82.9555 30.5685C82.9555 28.7618 84.2662 27.5219 85.7895 27.5219C87.3128 27.5219 88.6235 28.7618 88.6235 30.5685C88.6235 32.3634 87.3009 33.6151 85.7895 33.6151ZM74.7841 25.5499C72.0091 25.5499 69.7419 27.6636 69.7419 30.5685C69.7419 33.4615 72.0091 35.5871 74.7841 35.5871C77.559 35.5871 79.8262 33.4615 79.8262 30.5685C79.8262 27.6636 77.559 25.5499 74.7841 25.5499ZM74.7841 33.6151C73.2608 33.6151 71.9501 32.3634 71.9501 30.5685C71.9501 28.7618 73.2608 27.5219 74.7841 27.5219C76.3074 27.5219 77.6181 28.7618 77.6181 30.5685C77.6181 32.3634 76.3074 33.6151 74.7841 33.6151ZM61.7004 27.0968V29.2223H66.8016C66.6481 30.415 66.2466 31.3006 65.6444 31.9028C64.9005 32.6468 63.7432 33.4615 61.7122 33.4615C58.5712 33.4615 56.115 30.9346 56.115 27.7935C56.115 24.6525 58.5712 22.1255 61.7122 22.1255C63.4008 22.1255 64.6407 22.7868 65.5499 23.6488L67.0496 22.1491C65.7743 20.9329 64.0857 20 61.7004 20C57.4022 20 53.7888 23.4953 53.7888 27.8053C53.7888 32.1036 57.4022 35.6107 61.7004 35.6107C64.0266 35.6107 65.7743 34.8549 67.1441 33.4261C68.5492 32.0209 68.9862 30.0371 68.9862 28.443C68.9862 27.947 68.9507 27.4865 68.8681 27.1086H61.7004V27.0968ZM115.204 28.75C114.791 27.6282 113.516 25.5499 110.906 25.5499C108.32 25.5499 106.171 27.581 106.171 30.5685C106.171 33.3789 108.296 35.5871 111.154 35.5871C113.456 35.5871 114.791 34.1819 115.334 33.3671L113.622 32.2217C113.055 33.0601 112.276 33.6151 111.154 33.6151C110.032 33.6151 109.229 33.1073 108.721 32.0918L115.44 29.3168L115.204 28.75ZM108.355 30.4268C108.296 28.4902 109.855 27.4983 110.977 27.4983C111.851 27.4983 112.594 27.9352 112.842 28.5611L108.355 30.4268ZM102.9 35.2918H105.108V20.5314H102.9V35.2918ZM99.2864 26.6717H99.2038C98.7078 26.0813 97.7632 25.5499 96.5587 25.5499C94.0435 25.5499 91.7409 27.7581 91.7409 30.5921C91.7409 33.4025 94.0435 35.5989 96.5587 35.5989C97.7514 35.5989 98.7078 35.0675 99.2038 34.4534H99.2746V35.1738C99.2746 37.0985 98.2473 38.1259 96.5941 38.1259C95.248 38.1259 94.4096 37.1576 94.0671 36.3428L92.1424 37.1458C92.6974 38.4801 94.1616 40.1097 96.5941 40.1097C99.1802 40.1097 101.365 38.5864 101.365 34.8786V25.857H99.2746V26.6717H99.2864ZM96.7476 33.6151C95.2244 33.6151 93.9491 32.3397 93.9491 30.5921C93.9491 28.8209 95.2244 27.5337 96.7476 27.5337C98.2473 27.5337 99.4281 28.8327 99.4281 30.5921C99.44 32.3397 98.2591 33.6151 96.7476 33.6151ZM125.548 20.5314H120.27V35.2918H122.478V29.6947H125.56C128.004 29.6947 130.401 27.9234 130.401 25.113C130.39 22.3026 127.981 20.5314 125.548 20.5314ZM125.595 27.64H122.466V22.5742H125.595C127.249 22.5742 128.182 23.944 128.182 25.1012C128.182 26.2584 127.249 27.64 125.595 27.64ZM139.222 25.5263C137.628 25.5263 135.975 26.2348 135.29 27.7817L137.25 28.5965C137.664 27.7817 138.443 27.5101 139.258 27.5101C140.391 27.5101 141.56 28.195 141.572 29.4113V29.5648C141.171 29.3404 140.321 28.998 139.27 28.998C137.156 28.998 135.019 30.1552 135.019 32.3161C135.019 34.2881 136.743 35.5634 138.679 35.5634C140.155 35.5634 140.982 34.9022 141.49 34.1228H141.56V35.2564H143.686V29.6002C143.698 26.9906 141.738 25.5263 139.222 25.5263ZM138.951 33.6151C138.23 33.6151 137.227 33.249 137.227 32.3634C137.227 31.2298 138.478 30.7929 139.565 30.7929C140.533 30.7929 140.994 31.0054 141.572 31.2888C141.49 31.9279 141.18 32.5158 140.698 32.9434C140.216 33.3711 139.595 33.6097 138.951 33.6151ZM151.444 25.8451L148.917 32.2453H148.846L146.225 25.8451H143.851L147.783 34.7959L145.54 39.7672H147.842L153.9 25.8451H151.444ZM131.606 35.2918H133.814V20.5314H131.606V35.2918Z" fill="#141414"/>
<path d="M29.7941 27.3711L17.2182 40.7146V40.7264C17.3543 41.2318 17.6053 41.699 17.9518 42.0915C18.2982 42.4839 18.7306 42.791 19.2153 42.9887C19.6999 43.1865 20.2237 43.2696 20.7458 43.2315C21.2679 43.1934 21.7741 43.0352 22.225 42.7692L22.2604 42.7456L36.4068 34.586L29.7941 27.3711Z" fill="#EA4335"/>
<path d="M42.5117 25.1041L42.4999 25.0923L36.3949 21.5498L29.5107 27.6784L36.4186 34.5862L42.4999 31.0792C43.0378 30.788 43.4872 30.3571 43.8008 29.832C44.1144 29.3068 44.2805 28.7068 44.2817 28.0952C44.2829 27.4835 44.1191 26.8828 43.8076 26.3565C43.4961 25.8301 43.0484 25.3974 42.5117 25.1041Z" fill="#FBBC04"/>
<path d="M17.2182 15.3975C17.1473 15.6809 17.1001 15.9643 17.1001 16.2713V39.8526C17.1001 40.1596 17.1355 40.443 17.2182 40.7264L30.2192 27.7254L17.2182 15.3975Z" fill="#4285F4"/>
<path d="M29.8886 28.056L36.395 21.5496L22.2604 13.3546C21.8085 13.0844 21.3003 12.9225 20.7754 12.8815C20.2506 12.8404 19.7233 12.9215 19.235 13.1182C18.7467 13.3149 18.3105 13.6219 17.9606 14.0153C17.6107 14.4087 17.3566 14.8777 17.2182 15.3856L29.8886 28.056Z" fill="#34A853"/>
</svg>
