<svg width="26" height="26" viewBox="0 0 26 26" fill="none" xmlns="http://www.w3.org/2000/svg">
<path d="M15.4186 21.6666H10.5814C6.20372 21.6666 4.33333 19.7962 4.33333 15.4185V10.5813C4.33333 6.20364 6.20372 4.33325 10.5814 4.33325H15.4186C19.7963 4.33325 21.6667 6.20364 21.6667 10.5813V15.4185C21.6667 19.7962 19.7963 21.6666 15.4186 21.6666ZM10.5814 5.54255C6.8648 5.54255 5.54263 6.86472 5.54263 10.5813V15.4185C5.54263 19.1351 6.8648 20.4573 10.5814 20.4573H15.4186C19.1352 20.4573 20.4574 19.1351 20.4574 15.4185V10.5813C20.4574 6.86472 19.1352 5.54255 15.4186 5.54255H10.5814Z" fill="#39B751"/>
<path d="M11.7687 16.25C11.5953 16.25 11.4306 16.1775 11.3092 16.0505L8.85527 13.484C8.60381 13.221 8.60381 12.7858 8.85527 12.5228C9.10673 12.2598 9.52293 12.2598 9.77439 12.5228L11.7687 14.6086L16.2256 9.94724C16.4771 9.68425 16.8933 9.68425 17.1447 9.94724C17.3962 10.2102 17.3962 10.6455 17.1447 10.9085L12.2283 16.0505C12.1069 16.1775 11.9421 16.25 11.7687 16.25Z" fill="#39B751"/>
</svg>
