<svg width="180" height="49" viewBox="0 0 180 49" fill="none" xmlns="http://www.w3.org/2000/svg">
<g clip-path="url(#clip0_174_110)">
<path d="M68.6478 11.9644C69.2517 12.2246 69.7856 12.6236 70.2063 13.129C70.5567 13.5518 70.8361 14.0288 71.0334 14.5413C71.253 15.1 71.3601 15.6965 71.3485 16.2967C71.3397 17.1194 71.1332 17.928 70.7464 18.6542C70.3204 19.44 69.6 20.0248 68.7434 20.2802C69.4255 20.516 70.0031 20.984 70.3751 21.6024C70.7527 22.4205 70.9228 23.3191 70.8702 24.2187V25.344C70.855 25.8651 70.8852 26.3866 70.9602 26.9025C70.9897 27.1033 71.0627 27.2954 71.174 27.4651C71.2838 27.6386 71.4297 27.7863 71.6016 27.8984V28.3203H67.7644C67.6632 27.949 67.5844 27.6452 67.545 27.4145C67.4552 26.9412 67.4044 26.4613 67.3931 25.9797V24.4156C67.4621 23.6608 67.2628 22.9058 66.8305 22.2832C66.2558 21.8599 65.5419 21.6709 64.8331 21.7543H61.4572V28.3203H58.0814V11.5593H66.0765C66.9511 11.5366 67.8225 11.6739 68.6478 11.9644ZM61.4572 14.44V18.9411H65.1988C65.7742 18.972 66.3496 18.8799 66.8867 18.671C67.2237 18.4933 67.4999 18.2191 67.68 17.8833C67.8603 17.5375 67.9328 17.1455 67.8882 16.7581C67.9256 16.3721 67.8575 15.9832 67.6913 15.6328C67.5263 15.2774 67.2651 14.9753 66.9374 14.7607C66.4323 14.5354 65.8803 14.435 65.3282 14.4681L61.4572 14.44ZM80.165 28.2809H76.7048V11.5311H80.165V28.2809ZM85.6733 11.5311H89.3079L95.919 23.2116V11.5311H99.1542V28.2809H95.677L88.9253 16.3867V28.2809H85.6902L85.6733 11.5311ZM115.921 16.7524C115.82 16.2245 115.59 15.7297 115.251 15.3121C114.916 14.8945 114.483 14.566 113.991 14.3556C113.388 14.101 112.738 13.9746 112.084 13.9842C111.453 13.9677 110.827 14.0967 110.255 14.3612C109.683 14.6268 109.18 15.0216 108.787 15.5146C107.833 16.84 107.382 18.4615 107.515 20.0889C107.515 22.1032 107.982 23.5998 108.916 24.455C109.772 25.2822 110.916 25.7443 112.106 25.7434C113.154 25.7852 114.179 25.4249 114.97 24.7363C115.725 24.0443 116.211 23.1077 116.343 22.0919H112.506V19.2787H119.443V28.2809H117.086L116.737 26.1879C116.227 26.8396 115.619 27.4089 114.936 27.8758C113.911 28.4642 112.742 28.7564 111.56 28.7198C110.543 28.7512 109.531 28.5592 108.595 28.1572C107.659 27.7581 106.822 27.1589 106.142 26.4017C105.377 25.5449 104.79 24.5447 104.415 23.4591C104.037 22.3757 103.877 21.2287 103.942 20.0833C103.813 17.6958 104.604 15.3496 106.153 13.5285C106.897 12.7148 107.809 12.0735 108.826 11.6493C109.841 11.2306 110.936 11.0386 112.033 11.0867C113.872 10.996 115.682 11.5713 117.131 12.7071C118.369 13.7045 119.163 15.1501 119.342 16.7299L115.921 16.7524ZM144.053 14.5019H135.264V18.0296H143.344V20.9385H135.264V25.2427H144.503V28.2641H131.866V11.5143H144.075L144.053 14.5019ZM149.482 11.4861H152.959V25.2146H161.287V28.2359H149.505L149.482 11.4861ZM175.662 11.8462C176.812 12.2458 177.8 13.0104 178.475 14.0236C179.043 14.8373 179.444 15.7551 179.657 16.7243C179.859 17.6373 179.967 18.5687 179.977 19.5038C180.028 21.4631 179.569 23.402 178.644 25.1302C178.103 26.1264 177.292 26.9494 176.303 27.5045C175.314 28.0572 174.189 28.3186 173.057 28.2584H165.956V11.5086H173.102C173.976 11.504 174.845 11.6252 175.685 11.8687L175.662 11.8462ZM169.332 14.3894V25.344H172.523C173.282 25.376 174.03 25.1543 174.649 24.7138C175.27 24.2716 175.727 23.6366 175.949 22.9077C176.341 21.8889 176.533 20.8036 176.512 19.7119C176.59 18.3528 176.317 16.9964 175.718 15.7735C175.189 14.8582 174.134 14.4006 172.551 14.4006L169.332 14.3894Z" fill="url(#paint0_linear_174_110)"/>
<path d="M38.1358 6.34922C27.907 0.373978 14.1448 13.1009 11.3822 22.7502C10.237 26.55 9.85452 30.5387 10.2569 34.4869C9.56447 30.5273 9.75661 26.4636 10.8196 22.587C13.2727 12.5776 27.9689 -0.5375 38.1358 6.34922ZM35.075 4.6613C34.5937 4.48443 34.0989 4.34706 33.5953 4.25057C33.094 4.13795 32.5868 4.05342 32.0761 3.99738C30.0116 3.84298 27.9371 4.10707 25.9771 4.77383C24.0059 5.39566 22.1367 6.3037 20.4295 7.46887C18.7041 8.60584 17.1145 9.93672 15.692 11.4355C14.257 12.9229 12.9961 14.5689 11.9336 16.3417C10.8545 18.1045 9.9984 19.9944 9.38484 21.9681C8.24328 25.9512 8.14062 30.1603 9.08664 34.1943C8.42611 30.1583 8.71702 26.0238 9.93623 22.12C11.2465 18.2915 13.3935 14.803 16.2209 11.9081C17.5945 10.4228 19.1351 9.1012 20.8121 7.96962C22.4626 6.82325 24.2606 5.90533 26.1572 5.24082C28.0285 4.50365 30.0425 4.19973 32.048 4.35184C34.0632 4.48734 36.0215 5.07791 37.7757 6.07915C36.9384 5.49974 36.0309 5.02899 35.075 4.67818V4.6613ZM33.5671 4.04801C33.0552 3.89748 32.5347 3.77725 32.0086 3.68792C31.4845 3.57552 30.9519 3.50776 30.4163 3.48537C28.2666 3.42407 26.1252 3.77747 24.1091 4.52626C20.0838 6.04814 16.479 8.50727 13.5934 11.6999C12.1398 13.2923 10.8626 15.0373 9.78432 16.9044C8.67292 18.7451 7.83341 20.7368 7.29182 22.8177C6.76789 24.9108 6.59488 27.0764 6.77982 29.2262C6.97851 31.3549 7.53191 33.4354 8.4171 35.3815C6.91508 31.4053 6.71802 27.0541 7.85446 22.9584C8.43777 20.9425 9.28935 19.0141 10.3863 17.2251C11.4545 15.4151 12.7187 13.7283 14.156 12.1951C16.9436 9.05629 20.4194 6.6049 24.3117 5.03264C26.2538 4.27025 28.3244 3.88823 30.4107 3.90735C30.9326 3.89439 31.4546 3.93208 31.9692 4.01989C32.4903 4.07611 33.0072 4.16632 33.5165 4.28995C34.535 4.55803 35.5216 4.93531 36.4591 5.41524C35.5458 4.84812 34.5647 4.39822 33.539 4.07615L33.5671 4.04801ZM30.7989 3.14216C28.5114 2.82598 26.1831 2.99078 23.9629 3.62603C19.531 4.99804 15.543 7.52214 12.4062 10.9404C10.8455 12.6305 9.5051 14.5116 8.4171 16.5386C7.26332 18.5515 6.42642 20.7301 5.93586 22.9978C5.46384 25.2689 5.3896 27.6048 5.71643 29.9014C6.04054 32.1692 6.75436 34.364 7.82633 36.3886C5.89501 32.2354 5.40591 27.5562 6.43661 23.0934C6.97508 20.9004 7.81985 18.7942 8.94598 16.8368C10.0494 14.8734 11.3932 13.0552 12.9464 11.4242C15.984 8.08703 19.8334 5.59248 24.1204 4.18305C26.2666 3.46366 28.5465 3.23298 30.7933 3.50788C33.0421 3.7799 35.2023 4.54864 37.1174 5.75845C35.2547 4.3907 33.0854 3.50015 30.7989 3.16467V3.14216ZM30.2757 2.91149C27.9209 2.53567 25.5157 2.61782 23.192 3.15342C18.5287 4.3048 14.2838 6.74605 10.9434 10.1977C7.55046 13.6421 5.26738 18.024 4.3886 22.7783C3.96387 25.1359 3.91829 27.5462 4.25356 29.9182C4.60924 32.2725 5.34661 34.553 6.43661 36.6699C4.52554 32.3379 4.00462 27.52 4.94561 22.8796C5.89153 18.2828 8.16003 14.0626 11.4722 10.7378C14.6944 7.33899 18.7962 4.90053 23.3215 3.69356C25.5798 3.08721 27.9364 2.93801 30.2532 3.2547C32.5695 3.57142 34.7996 4.34602 36.8136 5.53339C34.8497 4.19979 32.6185 3.31078 30.2757 2.92836V2.91149ZM30.2194 2.61329C27.8277 2.10924 25.3638 2.04822 22.9501 2.43324C18.0997 3.27508 13.608 5.53662 10.0431 8.93174C6.43227 12.3184 3.98278 16.7586 3.04388 21.6193C2.57534 24.029 2.49178 26.4977 2.79632 28.9336C3.14394 31.3457 3.88724 33.684 4.99625 35.8541C4.02167 33.6457 3.40443 31.2964 3.16767 28.8942C2.93706 26.5017 3.089 24.0878 3.61778 21.7431C4.11937 19.3992 4.97904 17.1466 6.16654 15.0645C7.35048 13.0027 8.83318 11.1275 10.5664 9.5C14.0115 6.17656 18.3463 3.92319 23.0458 3.01276C25.3895 2.58514 27.7913 2.58514 30.135 3.01276C32.4992 3.462 34.7622 4.33705 36.8136 5.59528C34.8257 4.19371 32.5871 3.1871 30.2194 2.63017V2.61329ZM29.7299 2.15754C27.2803 1.56335 24.7439 1.41281 22.2412 1.71306C17.2033 2.38553 12.4915 4.5824 8.73781 8.00901C4.94209 11.4381 2.42777 16.0579 1.60915 21.1073C1.20055 23.603 1.16264 26.1455 1.49662 28.6523C1.86435 31.1435 2.62393 33.5609 3.74718 35.8147C1.79428 31.1992 1.25767 26.1073 2.20555 21.1861C2.64229 18.7665 3.46685 16.4334 4.64741 14.2768C5.86025 12.1366 7.40841 10.2048 9.23293 8.55477C12.8682 5.20516 17.4217 3.01856 22.3087 2.2757C24.7501 1.9179 27.2355 1.99217 29.6512 2.49513C32.0726 3.04071 34.3777 4.01231 36.4591 5.3646C34.4274 3.89171 32.1371 2.81339 29.7074 2.18568L29.7299 2.15754ZM29.9606 1.77495C27.4378 0.983755 24.7881 0.676413 22.1512 0.869098C16.831 1.32672 11.7971 3.47592 7.78694 7.00188C5.7847 8.75346 4.09516 10.833 2.7907 13.1515C1.49276 15.4817 0.63811 18.0323 0.270066 20.674C-0.110745 23.3006 -0.0917755 25.9696 0.32633 28.5904C0.76017 31.1881 1.60336 33.7006 2.82445 36.0341C0.651234 31.2531 -0.0442891 25.9318 0.82708 20.7528C1.23564 18.2037 2.09084 15.7467 3.35334 13.4948C4.64387 11.2564 6.3047 9.2531 8.26519 7.57015C12.1565 4.12462 17.0311 1.98741 22.2018 1.45987C24.7748 1.21127 27.3716 1.44405 29.8593 2.14629C32.3728 2.87843 34.7407 4.03956 36.8586 5.5784C34.805 3.91272 32.4684 2.6301 29.9606 1.79183V1.77495Z" fill="url(#paint1_linear_174_110)"/>
<path d="M8.59715 42.6564C18.8316 48.6317 32.5881 35.9047 35.3563 26.2498C36.5096 22.4497 36.8922 18.4575 36.4816 14.5075C37.1826 18.4703 36.9903 22.5395 35.919 26.4186C33.4659 36.428 18.7697 49.5375 8.59715 42.6564ZM11.6635 44.3443C12.1414 44.5315 12.6373 44.6691 13.1433 44.7551C13.6424 44.8786 14.1503 44.9632 14.6624 45.0083C16.7264 45.1724 18.802 44.912 20.7614 44.2431C22.7336 43.6184 24.6029 42.7065 26.3091 41.5368C28.0344 40.4105 29.6241 39.0889 31.0465 37.5983C32.4836 36.1003 33.7446 34.4429 34.805 32.6583C35.8861 30.8966 36.7423 29.0064 37.3537 27.0319C38.5076 23.04 38.618 18.8188 37.6744 14.772C38.3291 18.8064 38.0383 22.9377 36.8248 26.8406C35.511 30.6609 33.3643 34.1413 30.5401 37.03C29.1703 38.5149 27.6335 39.8365 25.9602 40.9685C24.285 42.116 22.4625 43.032 20.542 43.6917C18.6728 44.4543 16.654 44.7795 14.6399 44.6425C12.6238 44.5078 10.6649 43.9152 8.91223 42.9096C9.76073 43.502 10.6865 43.9753 11.6635 44.3162V44.3443ZM13.1714 44.9689C13.6822 45.1167 14.2006 45.2369 14.7243 45.329C15.2463 45.4404 15.7774 45.5044 16.311 45.5203C18.465 45.5833 20.6108 45.2279 22.6294 44.4737C26.665 42.9479 30.2793 40.483 33.1733 37.2832C34.6166 35.6951 35.8843 33.9558 36.9542 32.0957C38.0667 30.2461 38.9098 28.2474 39.458 26.1598C39.9746 24.0654 40.1456 21.9008 39.9644 19.7513C39.7585 17.6118 39.2015 15.5207 38.3158 13.5623C39.8237 17.5373 40.0208 21.8903 38.8785 25.9854C38.2949 28.0099 37.4514 29.9503 36.3691 31.7581C35.3026 33.5662 34.0423 35.2528 32.6107 36.7881C29.8162 39.9318 26.3327 42.3869 22.4325 43.9617C20.4903 44.7241 18.4198 45.1061 16.3335 45.087C15.8116 45.0976 15.2899 45.0599 14.7749 44.9745C14.2524 44.9155 13.7338 44.8254 13.2221 44.7044C12.2035 44.4422 11.2181 44.0647 10.2851 43.5791C11.1865 44.1519 12.1562 44.6093 13.1714 44.9407V44.9689ZM15.9452 45.8635C18.2318 46.1885 20.5612 46.0275 22.7813 45.3908C27.2092 44.0173 31.1933 41.4933 34.3267 38.0765C35.9086 36.3902 37.2716 34.5112 38.3833 32.4839C39.5371 30.471 40.374 28.2924 40.8646 26.0248C41.331 23.7529 41.4052 21.418 41.084 19.1212C40.7458 16.8426 40.0148 14.64 38.9235 12.6114C40.8508 16.7661 41.334 21.4458 40.2963 25.9066C39.7607 28.0952 38.9197 30.1976 37.7982 32.1519C36.6977 34.1189 35.3536 35.9393 33.7978 37.5701C30.7587 40.9017 26.9122 43.3938 22.6294 44.8057C20.4832 45.5251 18.2033 45.7558 15.9565 45.4809C13.7077 45.2089 11.5475 44.4401 9.63241 43.2303C11.4907 44.604 13.6589 45.4988 15.9452 45.8353V45.8635ZM16.4516 46.1054C18.8124 46.4756 21.222 46.3935 23.5521 45.8635C28.217 44.7041 32.4603 42.2528 35.7952 38.7911C39.1852 35.355 41.4699 30.9835 42.3556 26.2386C42.7782 23.8768 42.8219 21.4629 42.485 19.0874C42.1254 16.7348 41.3902 14.4552 40.3076 12.3357C42.2123 16.6696 42.7292 21.4867 41.7873 26.126C40.8476 30.7288 38.5807 34.9556 35.2663 38.2847C32.0459 41.6688 27.9593 44.1052 23.4509 45.329C21.1891 45.9278 18.8306 46.0693 16.5135 45.7453C14.1949 45.4242 11.9642 44.6417 9.95312 43.4441C11.9029 44.7824 14.1202 45.6809 16.4516 46.0773V46.1054ZM16.5248 46.4036C18.9146 46.9076 21.3766 46.9686 23.7884 46.5836C28.6395 45.7328 33.1282 43.4591 36.6842 40.0514C40.2977 36.676 42.7481 32.2419 43.6834 27.3863C44.151 24.9766 44.2365 22.5083 43.9366 20.072C43.589 17.6563 42.8457 15.3144 41.7367 13.1403C42.7036 15.3553 43.3205 17.707 43.5653 20.1114C43.7959 22.5039 43.6439 24.9179 43.1152 27.2626C42.6176 29.6015 41.7637 31.8502 40.5833 33.9299C39.3941 35.9958 37.9014 37.8716 36.1553 39.4944C32.7093 42.8208 28.3724 45.0763 23.6703 45.9873C21.3223 46.4093 18.9178 46.4093 16.5698 45.9873C14.2194 45.5387 11.9687 44.6716 9.92498 43.4272C11.9202 44.8267 14.1669 45.8277 16.5416 46.3755L16.5248 46.4036ZM17.0143 46.8593C19.4627 47.4498 21.9972 47.5966 24.4974 47.2926C29.5358 46.6259 34.2487 44.4305 38.0008 41.0023C41.7828 37.5717 44.2949 32.964 45.1294 27.9265C45.5361 25.4304 45.5722 22.888 45.2363 20.3815C44.8684 17.8867 44.1089 15.4656 42.9857 13.2078C44.916 17.8156 45.4444 22.8904 44.5049 27.7971C44.051 30.2204 43.2154 32.5562 42.0293 34.7176C40.8494 36.8566 39.3291 38.7892 37.5281 40.4396C33.8993 43.7904 29.3443 45.9689 24.458 46.6906C22.0262 47.0489 19.5504 46.9765 17.1437 46.4767C14.7216 45.9302 12.4163 44.9567 10.3357 43.6017C12.3401 45.0867 14.6056 46.1822 17.0143 46.8312V46.8593ZM16.7836 47.2307C19.3031 48.029 21.9515 48.3402 24.5874 48.1478C29.9093 47.682 34.9436 45.5295 38.9572 42.0038C40.9553 40.2482 42.6443 38.1694 43.9535 35.8541C45.268 33.5301 46.1435 30.9839 46.536 28.3428C46.9093 25.7138 46.8884 23.0438 46.4741 20.4209C46.0472 17.8178 45.2037 15.3006 43.976 12.9659C46.1521 17.7441 46.8478 23.0645 45.9734 28.2416C45.5587 30.7977 44.6958 33.2605 43.4246 35.5165C42.1155 37.7466 40.4397 39.74 38.4677 41.413C34.5803 44.8595 29.7101 47.0004 24.5424 47.5345C21.9694 47.7946 19.3705 47.5616 16.8848 46.8481C14.3693 46.1269 12.0001 44.969 9.8856 43.4272C11.9333 45.099 14.2717 46.3788 16.7836 47.2026V47.2307Z" fill="url(#paint2_linear_174_110)"/>
<path d="M33.3083 29.2149C33.8427 28.6587 34.3144 28.0455 34.7149 27.3863C37.0668 23.4479 36.9936 17.0731 33.117 13.2191C31.1028 11.3288 28.468 10.2384 25.707 10.1527H11.3147V37.317H20.2326V31.6905H25.4595L28.9479 37.5645H38.5352L33.3083 29.2149ZM20.7389 17.6358H24.7337C25.2226 17.6347 25.7068 17.7323 26.1572 17.9227C26.6089 18.1091 27.0184 18.3847 27.3612 18.7329C27.7062 19.0816 27.9796 19.4945 28.1658 19.9482C28.3577 20.4098 28.4534 20.9057 28.4471 21.4055C28.452 21.8955 28.3583 22.3815 28.1714 22.8346C27.9824 23.2866 27.7072 23.6974 27.3612 24.0443C27.0171 24.3923 26.608 24.6695 26.1572 24.8601C25.7077 25.0465 25.2259 25.1422 24.7393 25.1414H20.7389V17.6358Z" fill="white"/>
<path d="M33.3083 29.2149C33.8427 28.6587 34.3144 28.0455 34.7149 27.3863C37.0668 23.4479 36.9936 17.0731 33.117 13.2191C31.1028 11.3288 28.468 10.2384 25.707 10.1527H11.3147V37.317H20.2326V31.6905H25.4595L28.9479 37.5645H38.5352L33.3083 29.2149ZM20.7389 17.6358H24.7337C25.2226 17.6347 25.7068 17.7323 26.1572 17.9227C26.6089 18.1091 27.0184 18.3847 27.3612 18.7329C27.7062 19.0816 27.9796 19.4945 28.1658 19.9482C28.3577 20.4098 28.4534 20.9057 28.4471 21.4055C28.452 21.8955 28.3583 22.3815 28.1714 22.8346C27.9824 23.2866 27.7072 23.6974 27.3612 24.0443C27.0171 24.3923 26.608 24.6695 26.1572 24.8601C25.7077 25.0465 25.2259 25.1422 24.7393 25.1414H20.7389V17.6358Z" fill="#141414"/>
<path d="M24.7337 17.135H20.2326V25.614H24.7337C25.2893 25.6173 25.8401 25.5102 26.3541 25.299C26.8699 25.0852 27.3384 24.7716 27.7326 24.3762C28.1344 23.9817 28.4538 23.5112 28.6722 22.9921C28.8838 22.4745 28.9891 21.9196 28.9816 21.3605C28.9882 20.7978 28.883 20.2393 28.6722 19.7176C28.4569 19.2042 28.1434 18.7379 27.7494 18.3447C27.3509 17.9632 26.8804 17.6648 26.3653 17.467C25.85 17.2456 25.2946 17.1326 24.7337 17.135ZM24.7337 24.6069H21.2397V18.1422H24.7337C25.5802 18.1485 26.3896 18.4905 26.9842 19.093C27.2918 19.3946 27.5362 19.7544 27.7033 20.1514C27.8705 20.5484 27.9569 20.9747 27.9576 21.4055C27.9595 21.83 27.8773 22.2507 27.7157 22.6433C27.5504 23.0226 27.3135 23.3664 27.018 23.656C26.7223 23.9586 26.3681 24.1978 25.9771 24.3593C25.5845 24.5277 25.1609 24.6121 24.7337 24.6069ZM24.7337 17.135H20.2326V25.614H24.7337C25.2893 25.6173 25.8401 25.5102 26.3541 25.299C26.8699 25.0852 27.3384 24.7716 27.7326 24.3762C28.1344 23.9817 28.4538 23.5112 28.6722 22.9921C28.8838 22.4745 28.9891 21.9196 28.9816 21.3605C28.9882 20.7978 28.883 20.2393 28.6722 19.7176C28.4569 19.2042 28.1434 18.7379 27.7494 18.3447C27.3509 17.9632 26.8804 17.6648 26.3653 17.467C25.85 17.2456 25.2946 17.1326 24.7337 17.135ZM24.7337 24.6069H21.2397V18.1422H24.7337C25.5802 18.1485 26.3896 18.4905 26.9842 19.093C27.2918 19.3946 27.5362 19.7544 27.7033 20.1514C27.8705 20.5484 27.9569 20.9747 27.9576 21.4055C27.9595 21.83 27.8773 22.2507 27.7157 22.6433C27.5504 23.0226 27.3135 23.3664 27.018 23.656C26.7223 23.9586 26.3681 24.1978 25.9771 24.3593C25.5845 24.5277 25.1609 24.6121 24.7337 24.6069ZM33.9272 29.2824C34.3833 28.7771 34.792 28.2309 35.1482 27.6508C37.5675 23.6279 37.6069 16.9606 33.4602 12.8646C31.3587 10.8728 28.5958 9.72674 25.7014 9.64629H10.8139V37.8121H20.722V32.1857H25.1725L28.6722 38.0596H39.4467L33.9272 29.2824ZM19.7206 36.8331H11.7929V10.6759H25.6902C28.3314 10.7466 30.8529 11.7929 32.7682 13.6129C36.5041 17.3151 36.4647 23.521 34.2873 27.1557C33.9042 27.7813 33.4553 28.3641 32.9482 28.8942L32.6669 29.1755L37.6744 37.12H29.2348L25.7464 31.2461H19.7712L19.7206 36.8331ZM28.9591 21.4055C28.9604 20.8494 28.8514 20.2987 28.6384 19.7851C28.4308 19.2687 28.1208 18.7998 27.7269 18.4066C27.3393 18.0069 26.8766 17.6876 26.3653 17.467C25.8535 17.2545 25.3047 17.1455 24.7506 17.1463H20.2326V25.6253H24.7337C25.2893 25.6286 25.8401 25.5215 26.3541 25.3102C26.8699 25.0965 27.3384 24.7829 27.7326 24.3875C28.1212 23.9923 28.4272 23.5237 28.6328 23.009C28.8458 22.5011 28.9567 21.9562 28.9591 21.4055ZM24.7337 24.6069H21.2397V18.1422H24.7337C25.5802 18.1485 26.3896 18.4905 26.9842 19.093C27.2918 19.3946 27.5362 19.7544 27.7033 20.1514C27.8705 20.5484 27.9569 20.9747 27.9576 21.4055C27.9595 21.83 27.8773 22.2507 27.7157 22.6433C27.5504 23.0226 27.3135 23.3664 27.018 23.656C26.7223 23.9586 26.3681 24.1978 25.9771 24.3593C25.5845 24.5277 25.1609 24.6121 24.7337 24.6069Z" fill="#22A233"/>
<path d="M27.9576 21.4055C27.9595 21.83 27.8773 22.2507 27.7157 22.6433C27.5504 23.0226 27.3135 23.3664 27.018 23.656C26.7223 23.9586 26.3681 24.1978 25.9771 24.3593C25.5893 24.5235 25.1717 24.6059 24.7506 24.6013H21.2397V18.1422H24.7337C25.5802 18.1485 26.3896 18.4905 26.9842 19.093C27.2918 19.3946 27.5362 19.7544 27.7033 20.1514C27.8705 20.5484 27.9569 20.9747 27.9576 21.4055Z" fill="#141414"/>
<path d="M58.8804 36.4505C58.8925 36.6031 58.9471 36.7492 59.0379 36.8725C59.1346 36.9662 59.2508 37.0375 59.3782 37.0812C59.5056 37.125 59.641 37.1402 59.7749 37.1257C59.9444 37.1305 60.1136 37.1077 60.2757 37.0581C60.3833 37.0335 60.479 36.9724 60.5467 36.8853C60.6144 36.7981 60.6498 36.6902 60.647 36.5799C60.6476 36.5161 60.6312 36.4534 60.5996 36.398C60.568 36.3427 60.5222 36.2967 60.467 36.2648C60.2898 36.174 60.1002 36.1095 59.9044 36.0735L59.4599 35.9779C59.1426 35.9234 58.8366 35.8169 58.554 35.6628C58.4141 35.5615 58.3024 35.4262 58.2295 35.2696C58.1566 35.113 58.125 34.9404 58.1377 34.7682C58.1333 34.5944 58.168 34.4218 58.239 34.2631C58.3101 34.1044 58.4158 33.9636 58.5484 33.8511C58.8839 33.5793 59.3107 33.4464 59.7412 33.4797C60.1444 33.4691 60.5399 33.5917 60.8665 33.8286C61.021 33.9453 61.1459 34.0968 61.2309 34.2708C61.316 34.4448 61.3588 34.6364 61.356 34.8301H60.5176C60.5159 34.72 60.4841 34.6125 60.4256 34.5192C60.3671 34.426 60.2841 34.3506 60.1857 34.3012C60.0248 34.2293 59.8498 34.1947 59.6737 34.1999C59.4776 34.1879 59.2822 34.2328 59.111 34.3293C59.0475 34.3693 58.9955 34.425 58.96 34.4911C58.9245 34.5571 58.9067 34.6313 58.9085 34.7063C58.9064 34.7746 58.9238 34.8421 58.9587 34.9009C58.9936 34.9597 59.0445 35.0073 59.1054 35.0383C59.287 35.1126 59.4755 35.1692 59.668 35.207L60.3882 35.3758C60.6456 35.4243 60.8894 35.5279 61.1028 35.6797C61.2263 35.78 61.3239 35.9085 61.3876 36.0544C61.4512 36.2002 61.479 36.3592 61.4685 36.518C61.4715 36.6971 61.4341 36.8746 61.3591 37.0372C61.2841 37.1999 61.1734 37.3436 61.0353 37.4576C60.6822 37.7248 60.245 37.8565 59.8031 37.829C59.3465 37.8545 58.8947 37.7257 58.5203 37.4632C58.3683 37.343 58.2468 37.1887 58.1656 37.0127C58.0845 36.8367 58.046 36.6441 58.0533 36.4505H58.8804Z" fill="white"/>
<path d="M65.6489 33.6035V34.3462H64.4111V37.7221H63.5559V34.3462H62.3181V33.6204L65.6489 33.6035Z" fill="white"/>
<path d="M67.4944 33.6035H68.4677L69.9137 37.7221H68.9797L68.704 36.8781H67.1905L66.9317 37.7221H66.0315L67.4944 33.6035ZM67.4381 36.1635H68.4959L67.9726 34.5431L67.4381 36.1635Z" fill="white"/>
<path d="M72.8338 33.6035H73.8072L72.4287 36.1804V37.7221H71.5679V36.1804L70.1444 33.6035H71.1572L71.9955 35.3984L72.8338 33.6035Z" fill="white"/>
<path d="M77.3293 34.0311C77.4935 33.8633 77.6909 33.7316 77.9089 33.6444C78.1269 33.5572 78.3606 33.5165 78.5953 33.5248C78.8839 33.4993 79.1743 33.5485 79.4383 33.6677C79.7024 33.787 79.9314 33.9722 80.1032 34.2056C80.268 34.4307 80.3655 34.698 80.3845 34.9764H79.5236C79.4858 34.8126 79.4129 34.659 79.3098 34.5263C79.2239 34.4333 79.1179 34.3612 79 34.3154C78.882 34.2696 78.7551 34.2513 78.629 34.2618C78.486 34.258 78.3444 34.2906 78.2174 34.3565C78.0905 34.4224 77.9823 34.5196 77.9032 34.6388C77.7093 34.9603 77.6172 35.333 77.6388 35.7078C77.6091 36.0769 77.7086 36.4448 77.9201 36.7487C78.0028 36.8578 78.1101 36.9458 78.2333 37.0055C78.3565 37.0652 78.4922 37.0948 78.629 37.0919C78.7568 37.1008 78.8848 37.0789 79.0023 37.028C79.1198 36.977 79.2234 36.8986 79.3042 36.7993C79.4091 36.6572 79.482 36.494 79.518 36.3211H80.3732C80.317 36.7405 80.1184 37.1278 79.8106 37.4182C79.492 37.7049 79.0742 37.8563 78.6459 37.8402C78.3879 37.8556 78.1296 37.8131 77.8901 37.7157C77.6506 37.6184 77.4359 37.4687 77.2618 37.2776C76.9039 36.8354 76.7234 36.2758 76.7554 35.7078C76.7346 35.4042 76.7746 35.0995 76.8732 34.8115C76.9717 34.5236 77.1268 34.2583 77.3293 34.0311Z" fill="white"/>
<path d="M84.8181 37.3563C84.6378 37.5247 84.425 37.6544 84.1928 37.7376C83.9606 37.8208 83.7139 37.8557 83.4677 37.8402C83.2215 37.8567 82.9745 37.8223 82.7421 37.739C82.5098 37.6558 82.2971 37.5255 82.1174 37.3563C81.9018 37.1336 81.7345 36.8686 81.626 36.5782C81.5176 36.2877 81.4703 35.978 81.4872 35.6684C81.4661 35.3584 81.5114 35.0475 81.6201 34.7564C81.7287 34.4653 81.8983 34.2008 82.1174 33.9805C82.2971 33.8113 82.5098 33.6811 82.7421 33.5978C82.9745 33.5145 83.2215 33.4801 83.4677 33.4966C83.7139 33.4811 83.9606 33.516 84.1928 33.5992C84.425 33.6824 84.6378 33.8122 84.8181 33.9805C85.0362 34.2013 85.2047 34.466 85.3124 34.7571C85.4201 35.0482 85.4645 35.3588 85.4426 35.6684C85.4602 35.9776 85.4139 36.2871 85.3064 36.5775C85.1989 36.868 85.0327 37.1331 84.8181 37.3563ZM84.2554 36.7318C84.4757 36.4184 84.5828 36.0395 84.5593 35.6572C84.5828 35.2749 84.4757 34.8959 84.2554 34.5825C84.1594 34.4606 84.036 34.3629 83.8953 34.2975C83.7545 34.232 83.6004 34.2005 83.4452 34.2056C83.2891 34.1991 83.1337 34.23 82.9918 34.2955C82.8499 34.3611 82.7257 34.4595 82.6294 34.5825C82.4091 34.8959 82.302 35.2749 82.3256 35.6572C82.302 36.0395 82.4091 36.4184 82.6294 36.7318C82.7257 36.8549 82.8499 36.9533 82.9918 37.0188C83.1337 37.0844 83.2891 37.1152 83.4452 37.1088C83.6043 37.1189 83.7634 37.0898 83.9086 37.0241C84.0538 36.9584 84.1806 36.858 84.2779 36.7318H84.2554Z" fill="white"/>
<path d="M89.4036 33.6035H90.6414V37.7221H89.8425V34.5994C89.8425 34.4531 89.8425 34.3406 89.8425 34.2674L89.066 37.7221H88.2277L87.4512 34.2674C87.4512 34.3406 87.4512 34.4531 87.4512 34.5994V37.7221H86.6523V33.6035H87.9013L88.6553 36.8443L89.4036 33.6035Z" fill="white"/>
<path d="M94.7768 35.9385C94.4804 36.1585 94.1155 36.2662 93.7472 36.2423H92.8863V37.7221H92.0311V33.6035H93.8034C94.1555 33.5864 94.5016 33.6985 94.7768 33.9186C94.9057 34.0474 95.0052 34.2026 95.0683 34.3736C95.1315 34.5446 95.1568 34.7272 95.1425 34.9089C95.1615 35.0968 95.1386 35.2867 95.0753 35.4648C95.0121 35.6428 94.9101 35.8046 94.7768 35.9385ZM94.1242 34.4531C93.9906 34.3562 93.8276 34.3085 93.6628 34.3181H92.8863V35.5334H93.6628C93.8302 35.5428 93.9951 35.4886 94.1242 35.3815C94.1829 35.3196 94.2278 35.246 94.2559 35.1655C94.284 35.085 94.2947 34.9994 94.2873 34.9145C94.2966 34.8303 94.2868 34.745 94.2585 34.6651C94.2303 34.5852 94.1843 34.5128 94.1242 34.4531Z" fill="white"/>
<path d="M96.4029 33.6035H97.2637V36.9794H99.323V37.7221H96.4029V33.6035Z" fill="white"/>
<path d="M101.652 33.6035H102.626L104.066 37.7221H103.132L102.862 36.8781H101.343L101.084 37.7221H100.178L101.652 33.6035ZM101.596 36.1635H102.648L102.131 34.5431L101.596 36.1635Z" fill="white"/>
<path d="M105.968 37.7221H105.113V33.6035H105.968V37.7221Z" fill="white"/>
<path d="M107.329 33.6035H108.235L109.867 36.473V33.6035H110.671V37.7221H109.811L108.123 34.802V37.7221H107.329V33.6035Z" fill="white"/>
<path d="M115.049 33.6035V34.3462H113.811V37.7221H112.944V34.3462H111.707V33.6204L115.049 33.6035Z" fill="white"/>
<path d="M115.381 38.386C115.522 38.3559 115.648 38.276 115.735 38.1609C115.825 38.0315 115.875 37.8793 115.881 37.7221H115.398V36.8893H116.258V37.6095C116.258 37.7442 116.241 37.8783 116.208 38.009C116.176 38.1422 116.112 38.2658 116.022 38.3691C115.925 38.4739 115.806 38.5564 115.673 38.611C115.587 38.6538 115.493 38.6823 115.398 38.6954L115.381 38.386Z" fill="white"/>
<path d="M122.228 33.6935C122.514 33.7857 122.761 33.9696 122.931 34.2168C123.073 34.416 123.172 34.6419 123.224 34.8807C123.274 35.1043 123.3 35.3325 123.303 35.5615C123.32 36.0481 123.205 36.5303 122.971 36.9569C122.836 37.2014 122.636 37.4029 122.392 37.5383C122.148 37.6737 121.871 37.7374 121.592 37.7221H119.82V33.6035H121.598C121.811 33.6002 122.024 33.6306 122.228 33.6935ZM120.653 34.3462V37.0356H121.446C121.634 37.0418 121.819 36.9864 121.972 36.8776C122.126 36.7689 122.239 36.613 122.296 36.4336C122.391 36.1842 122.437 35.9185 122.431 35.6515C122.449 35.3174 122.381 34.9843 122.234 34.6838C122.145 34.5619 122.025 34.4662 121.886 34.4067C121.748 34.3473 121.596 34.3264 121.446 34.3462H120.653Z" fill="white"/>
<path d="M127.162 33.7104C127.314 33.772 127.447 33.8706 127.551 33.9974C127.635 34.1008 127.703 34.2166 127.753 34.3406C127.806 34.4788 127.833 34.6258 127.832 34.7738C127.827 34.9701 127.777 35.1626 127.686 35.3365C127.635 35.4322 127.565 35.5169 127.481 35.5855C127.397 35.6541 127.3 35.7052 127.196 35.7359C127.362 35.7968 127.503 35.9117 127.596 36.0623C127.692 36.2636 127.735 36.4865 127.719 36.7093V36.985C127.707 37.1122 127.707 37.2404 127.719 37.3676C127.727 37.4161 127.745 37.4623 127.772 37.5031C127.799 37.5439 127.835 37.5783 127.877 37.6039V37.7221H126.926C126.903 37.65 126.885 37.5767 126.87 37.5026C126.847 37.3858 126.836 37.2671 126.836 37.1482V36.7656C126.854 36.5781 126.804 36.3903 126.695 36.2367C126.554 36.1338 126.38 36.0876 126.206 36.1073H125.368V37.7221H124.524V33.6035H126.493C126.721 33.5955 126.948 33.6318 127.162 33.7104ZM125.384 34.3462V35.4715H126.307C126.449 35.4795 126.591 35.4565 126.724 35.404C126.806 35.3594 126.873 35.2911 126.917 35.2078C126.96 35.1245 126.977 35.0301 126.965 34.937C126.978 34.8397 126.962 34.741 126.92 34.6524C126.878 34.5637 126.812 34.4888 126.729 34.4362C126.606 34.379 126.471 34.3539 126.335 34.3631L125.384 34.3462Z" fill="white"/>
<path d="M130.015 37.7221H129.16V33.6035H130.015V37.7221Z" fill="white"/>
<path d="M133.802 33.6035H134.696L133.323 37.7221H132.479L131.073 33.6035H131.995L132.89 36.7318L133.802 33.6035Z" fill="white"/>
<path d="M138.832 34.3462H136.649V35.2239H138.652V35.9385H136.649V37.0019H138.95V37.7221H135.827V33.6035H138.848L138.832 34.3462Z" fill="white"/>
<path d="M142.731 34.0311C142.895 33.8633 143.092 33.7316 143.31 33.6444C143.528 33.5572 143.762 33.5165 143.997 33.5248C144.285 33.4993 144.576 33.5485 144.84 33.6677C145.104 33.787 145.333 33.9722 145.504 34.2056C145.669 34.4307 145.767 34.698 145.786 34.9764H144.925C144.887 34.8126 144.814 34.659 144.711 34.5263C144.625 34.4333 144.519 34.3612 144.401 34.3154C144.283 34.2696 144.156 34.2513 144.03 34.2618C143.887 34.258 143.746 34.2906 143.619 34.3565C143.492 34.4224 143.384 34.5196 143.305 34.6388C143.111 34.9603 143.018 35.333 143.04 35.7078C143.013 36.0766 143.112 36.4436 143.321 36.7487C143.404 36.8578 143.511 36.9458 143.635 37.0055C143.758 37.0652 143.893 37.0948 144.03 37.0919C144.159 37.1003 144.288 37.0782 144.406 37.0274C144.524 36.9765 144.629 36.8984 144.711 36.7993C144.812 36.6554 144.883 36.4928 144.919 36.3211H145.78C145.721 36.7395 145.523 37.1259 145.218 37.4182C144.899 37.7049 144.481 37.8563 144.053 37.8402C143.795 37.8544 143.537 37.8113 143.298 37.714C143.058 37.6168 142.844 37.4677 142.669 37.2776C142.313 36.8346 142.134 36.2751 142.168 35.7078C142.147 35.4051 142.186 35.1011 142.282 34.8134C142.379 34.5257 142.531 34.2599 142.731 34.0311Z" fill="white"/>
<path d="M150.203 37.3563C150.023 37.5255 149.81 37.6558 149.578 37.739C149.345 37.8223 149.098 37.8567 148.852 37.8402C148.606 37.8567 148.359 37.8223 148.127 37.739C147.894 37.6558 147.682 37.5255 147.502 37.3563C147.287 37.1331 147.121 36.868 147.014 36.5775C146.906 36.2871 146.86 35.9776 146.877 35.6684C146.855 35.3588 146.9 35.0482 147.008 34.7571C147.115 34.466 147.284 34.2013 147.502 33.9805C147.682 33.8113 147.894 33.6811 148.127 33.5978C148.359 33.5145 148.606 33.4801 148.852 33.4966C149.098 33.4801 149.345 33.5145 149.578 33.5978C149.81 33.6811 150.023 33.8113 150.203 33.9805C150.421 34.2013 150.589 34.466 150.697 34.7571C150.805 35.0482 150.849 35.3588 150.827 35.6684C150.845 35.9776 150.798 36.2871 150.691 36.5775C150.583 36.868 150.417 37.1331 150.203 37.3563ZM149.64 36.7318C149.86 36.4184 149.967 36.0395 149.944 35.6572C149.967 35.2749 149.86 34.8959 149.64 34.5825C149.544 34.4602 149.421 34.3623 149.28 34.2968C149.139 34.2313 148.985 34.2 148.83 34.2056C148.674 34.1991 148.518 34.23 148.376 34.2955C148.234 34.3611 148.11 34.4595 148.014 34.5825C147.794 34.8959 147.686 35.2749 147.71 35.6572C147.686 36.0395 147.794 36.4184 148.014 36.7318C148.11 36.8549 148.234 36.9533 148.376 37.0188C148.518 37.0844 148.674 37.1152 148.83 37.1088C148.992 37.1223 149.154 37.0948 149.303 37.029C149.451 36.9631 149.581 36.8609 149.679 36.7318H149.64Z" fill="white"/>
<path d="M152.059 33.6035H152.959L154.597 36.473V33.6035H155.401V37.7221H154.54L152.853 34.802V37.7221H152.059V33.6035Z" fill="white"/>
<path d="M156.78 33.6092H159.717V34.3462H157.635V35.2971H159.458V36.0116H157.635V37.7221H156.78V33.6092Z" fill="white"/>
<path d="M161.635 37.7221H160.78V33.6035H161.635V37.7221Z" fill="white"/>
<path d="M165.428 33.6935C165.713 33.7872 165.959 33.9708 166.131 34.2168C166.272 34.416 166.372 34.6419 166.423 34.8807C166.473 35.1043 166.5 35.3325 166.502 35.5615C166.517 36.0478 166.402 36.5293 166.17 36.9569C166.035 37.2009 165.835 37.4021 165.591 37.5374C165.347 37.6728 165.07 37.7367 164.792 37.7221H163.014V33.6035H164.792C165.007 33.5996 165.222 33.63 165.428 33.6935ZM163.847 34.3462V37.0356H164.646C164.833 37.0418 165.018 36.9864 165.172 36.8776C165.325 36.7689 165.439 36.613 165.495 36.4336C165.589 36.1838 165.633 35.9182 165.625 35.6515C165.646 35.3172 165.578 34.9833 165.428 34.6838C165.34 34.5619 165.221 34.466 165.083 34.4066C164.946 34.3471 164.794 34.3262 164.646 34.3462H163.847Z" fill="white"/>
<path d="M170.767 34.3462H168.59V35.2239H170.587V35.9385H168.59V37.0019H170.868V37.7221H167.746V33.6035H170.767V34.3462Z" fill="white"/>
<path d="M172.101 33.6035H173.001L174.638 36.473V33.6035H175.437V37.7221H174.576L172.888 34.802V37.7221H172.089L172.101 33.6035Z" fill="white"/>
<path d="M179.814 33.6035V34.3462H178.582V37.7221H177.716V34.3462H176.478V33.6204L179.814 33.6035Z" fill="white"/>
</g>
<defs>
<linearGradient id="paint0_linear_174_110" x1="58.0308" y1="19.8976" x2="180" y2="19.8976" gradientUnits="userSpaceOnUse">
<stop stop-color="#0D6015"/>
<stop offset="1" stop-color="#29B73D"/>
</linearGradient>
<linearGradient id="paint1_linear_174_110" x1="-1.70204e-06" y1="18.7554" x2="38.1358" y2="18.7554" gradientUnits="userSpaceOnUse">
<stop stop-color="#29B73D"/>
<stop offset="1" stop-color="#29B73D"/>
</linearGradient>
<linearGradient id="paint2_linear_174_110" x1="46.8004" y1="30.2558" x2="8.64216" y2="30.2558" gradientUnits="userSpaceOnUse">
<stop stop-color="#29B73D"/>
<stop offset="1" stop-color="#29B73D"/>
</linearGradient>
<clipPath id="clip0_174_110">
<rect width="180" height="47.3406" fill="white" transform="translate(0 0.829712)"/>
</clipPath>
</defs>
</svg>
