<svg width="112" height="32" viewBox="0 0 112 32" fill="none" xmlns="http://www.w3.org/2000/svg">
<path d="M33.1036 21.6764V11.1455H36.6127V18.7585H44.2018V21.6799L33.1036 21.6764Z" fill="#131313"/>
<path d="M58.1564 11.1455V17.0769C58.1564 18.3162 57.9118 19.3022 57.4224 20.035C56.9331 20.7678 56.2326 21.2867 55.3208 21.5919C54.4096 21.8967 53.2705 22.0491 51.9036 22.0491C50.5367 22.0491 49.3976 21.8967 48.4864 21.5919C47.5751 21.2872 46.8746 20.7708 46.3848 20.0426C45.895 19.3145 45.6501 18.3259 45.6501 17.0769V11.1455H49.1592V16.9737C49.1592 17.7305 49.395 18.2763 49.8668 18.611C50.3386 18.9458 51.0185 19.1131 51.9065 19.1131C52.7864 19.1131 53.4644 18.9458 53.9404 18.611C54.4165 18.2763 54.6538 17.7305 54.6523 16.9737V11.1455H58.1564Z" fill="#131313"/>
<path d="M75.4433 21.6764H71.9342V14.506H71.8523L69.0758 21.6764H66.4296L63.614 14.4173H63.5186V21.6764H60.2003V11.1455H65.586L67.7218 17.0617H67.8165L69.9109 11.1455H75.4468L75.4433 21.6764Z" fill="#131313"/>
<path d="M77.4825 21.6764V11.1455H80.9916V21.6799L77.4825 21.6764Z" fill="#131313"/>
<path d="M95.062 12.1948C96.2452 13.1182 96.8368 14.5346 96.8368 16.4438C96.8368 18.3531 96.2452 19.7695 95.062 20.6929C93.8788 21.6164 92.1227 22.0781 89.7938 22.0781C87.472 22.0781 85.7197 21.6164 84.537 20.6929C83.3542 19.7695 82.7619 18.3531 82.76 16.4438C82.76 14.536 83.3516 13.1196 84.5348 12.1948C85.718 11.2699 87.4703 10.8082 89.7917 10.8096C92.122 10.8082 93.8788 11.2699 95.062 12.1948ZM92.1851 18.5022C92.7196 18.0248 92.987 17.3387 92.9875 16.4438C92.988 15.549 92.7205 14.8629 92.1851 14.3854C91.6507 13.9085 90.8529 13.67 89.7917 13.67C88.7304 13.67 87.9347 13.9085 87.4046 14.3854C86.874 14.8629 86.6087 15.549 86.6087 16.4438C86.6087 17.3387 86.874 18.0248 87.4046 18.5022C87.9352 18.9792 88.7309 19.2177 89.7917 19.2177C90.8524 19.2177 91.6503 18.9792 92.1851 18.5022Z" fill="#131313"/>
<path d="M106.147 13.45C105.761 13.2653 105.205 13.173 104.48 13.173C103.737 13.173 103.206 13.2492 102.889 13.4015C102.571 13.5539 102.413 13.7776 102.413 14.0726C102.406 14.1761 102.429 14.2793 102.479 14.3706C102.529 14.462 102.605 14.5377 102.697 14.5893C102.887 14.6974 103.214 14.7761 103.676 14.8255L107.634 15.1794C108.831 15.2875 109.731 15.5973 110.334 16.1089C110.937 16.6205 111.238 17.3927 111.238 18.4256C111.238 19.3994 110.996 20.1518 110.511 20.6828C110.026 21.2138 109.314 21.5802 108.375 21.7819C107.436 21.9837 106.196 22.0846 104.655 22.0846C103.176 22.0846 101.979 21.9763 101.064 21.7598C100.149 21.5432 99.4442 21.1547 98.9491 20.5941C98.4551 20.0341 98.19 19.2422 98.1539 18.2185H102.239C102.339 18.7795 102.59 19.1658 102.994 19.3772C103.397 19.5887 103.998 19.6945 104.796 19.6945C105.612 19.6945 106.199 19.6132 106.557 19.4507C106.916 19.2881 107.095 19.0342 107.094 18.6888C107.094 18.4035 106.99 18.1957 106.782 18.0655C106.573 17.9353 106.261 17.8517 105.843 17.8147L102.035 17.4165C100.829 17.2891 99.9221 16.9889 99.3151 16.5161C98.708 16.0433 98.4043 15.2907 98.4038 14.2583C98.4038 13.381 98.6463 12.69 99.1314 12.1853C99.6165 11.6806 100.31 11.324 101.212 11.1153C102.114 10.9089 103.245 10.8057 104.605 10.8057C105.957 10.8057 107.081 10.9114 107.978 11.1229C108.876 11.3344 109.576 11.7007 110.08 12.222C110.584 12.7433 110.849 13.4565 110.875 14.3615H106.836C106.808 14.1657 106.731 13.9797 106.61 13.8205C106.49 13.6613 106.331 13.5339 106.147 13.45Z" fill="#131313"/>
<mask id="path-7-outside-1_49_374" maskUnits="userSpaceOnUse" x="-0.325073" y="4.32715" width="29" height="25" fill="black">
<rect fill="white" x="-0.325073" y="4.32715" width="29" height="25"/>
<path fill-rule="evenodd" clip-rule="evenodd" d="M15.8729 25.1346C15.4433 25.1881 15.0053 25.2157 14.5607 25.2157C14.1127 25.2157 13.6715 25.1877 13.2387 25.1334C13.0339 26.2607 12.441 27.0947 11.5969 27.3783C10.8944 27.6155 10.2227 27.4022 10.149 27.3788L10.1475 27.3783C8.56519 26.8485 8.1153 24.5675 7.99863 22.8964C7.17368 22.2238 6.4595 21.4268 5.88657 20.535C5.84143 20.7247 5.8059 20.8975 5.77339 21.0555C5.63983 21.7051 5.5574 22.1059 5.07004 22.402C4.34317 22.8439 3.42764 22.6222 3.37923 22.6098C2.44234 22.3687 2.03156 21.566 1.92975 21.3631C0.933062 19.4086 3.16707 17.0198 3.37923 16.7975C3.70373 16.459 4.03874 16.1822 4.3625 15.9529C4.34683 15.7278 4.33887 15.5005 4.33887 15.2715C4.33887 9.77937 8.91532 5.32715 14.5607 5.32715C20.206 5.32715 24.7824 9.77937 24.7824 15.2715C24.7824 15.5047 24.7742 15.736 24.7579 15.9652C25.0757 16.192 25.4039 16.465 25.7222 16.7975C25.9443 17.0198 28.179 19.4086 27.1809 21.3631C27.0798 21.5646 26.669 22.3673 25.7322 22.6098C25.6837 22.6222 24.7682 22.8439 24.0413 22.402C23.5567 22.1065 23.4743 21.7067 23.3409 21.0595C23.3086 20.903 23.2734 20.7319 23.2287 20.5444C22.6543 21.4362 21.9385 22.233 21.1119 22.9051C20.9945 24.5755 20.5434 26.8494 18.9639 27.3783L18.9624 27.3788C18.8887 27.4022 18.217 27.6155 17.5144 27.3783C16.6707 27.0948 16.0779 26.2613 15.8729 25.1346Z"/>
</mask>
<path fill-rule="evenodd" clip-rule="evenodd" d="M15.8729 25.1346C15.4433 25.1881 15.0053 25.2157 14.5607 25.2157C14.1127 25.2157 13.6715 25.1877 13.2387 25.1334C13.0339 26.2607 12.441 27.0947 11.5969 27.3783C10.8944 27.6155 10.2227 27.4022 10.149 27.3788L10.1475 27.3783C8.56519 26.8485 8.1153 24.5675 7.99863 22.8964C7.17368 22.2238 6.4595 21.4268 5.88657 20.535C5.84143 20.7247 5.8059 20.8975 5.77339 21.0555C5.63983 21.7051 5.5574 22.1059 5.07004 22.402C4.34317 22.8439 3.42764 22.6222 3.37923 22.6098C2.44234 22.3687 2.03156 21.566 1.92975 21.3631C0.933062 19.4086 3.16707 17.0198 3.37923 16.7975C3.70373 16.459 4.03874 16.1822 4.3625 15.9529C4.34683 15.7278 4.33887 15.5005 4.33887 15.2715C4.33887 9.77937 8.91532 5.32715 14.5607 5.32715C20.206 5.32715 24.7824 9.77937 24.7824 15.2715C24.7824 15.5047 24.7742 15.736 24.7579 15.9652C25.0757 16.192 25.4039 16.465 25.7222 16.7975C25.9443 17.0198 28.179 19.4086 27.1809 21.3631C27.0798 21.5646 26.669 22.3673 25.7322 22.6098C25.6837 22.6222 24.7682 22.8439 24.0413 22.402C23.5567 22.1065 23.4743 21.7067 23.3409 21.0595C23.3086 20.903 23.2734 20.7319 23.2287 20.5444C22.6543 21.4362 21.9385 22.233 21.1119 22.9051C20.9945 24.5755 20.5434 26.8494 18.9639 27.3783L18.9624 27.3788C18.8887 27.4022 18.217 27.6155 17.5144 27.3783C16.6707 27.0948 16.0779 26.2613 15.8729 25.1346Z" fill="#131313"/>
<path d="M15.8729 25.1346L16.8567 24.9556L16.6875 24.0253L15.7492 24.1423L15.8729 25.1346ZM13.2387 25.1334L13.3633 24.1412L12.424 24.0232L12.2548 24.9546L13.2387 25.1334ZM11.5969 27.3783L11.2785 26.4303L11.277 26.4308L11.5969 27.3783ZM10.149 27.3788L10.4517 26.4257L10.4512 26.4255L10.149 27.3788ZM10.1475 27.3783L9.82995 28.3265L9.83757 28.3291L9.84523 28.3315L10.1475 27.3783ZM7.99863 22.8964L8.9962 22.8267L8.96605 22.3949L8.63056 22.1214L7.99863 22.8964ZM5.88657 20.535L6.72788 19.9945L5.45784 18.0178L4.91375 20.3035L5.88657 20.535ZM5.77339 21.0555L6.7529 21.2569V21.2569L5.77339 21.0555ZM5.07004 22.402L4.55083 21.5473L4.55058 21.5475L5.07004 22.402ZM3.37923 22.6098L3.6286 21.6414L3.62837 21.6413L3.37923 22.6098ZM1.92975 21.3631L2.8236 20.9147L2.82061 20.9088L1.92975 21.3631ZM3.37923 16.7975L2.6574 16.1054L2.65576 16.1071L3.37923 16.7975ZM4.3625 15.9529L4.94035 16.7691L5.3991 16.4443L5.36009 15.8835L4.3625 15.9529ZM24.7579 15.9652L23.7604 15.8946L23.7208 16.4537L24.1771 16.7792L24.7579 15.9652ZM25.7222 16.7975L24.9999 17.489L25.0072 17.4967L25.0148 17.5043L25.7222 16.7975ZM27.1809 21.3631L26.2903 20.9083L26.2871 20.9147L27.1809 21.3631ZM25.7322 22.6098L25.9815 23.5782L25.9826 23.5779L25.7322 22.6098ZM24.0413 22.402L23.5208 23.2558L23.5219 23.2565L24.0413 22.402ZM23.3409 21.0595L24.3203 20.8577V20.8577L23.3409 21.0595ZM23.2287 20.5444L24.2015 20.3128L23.6582 18.0308L22.388 20.0029L23.2287 20.5444ZM21.1119 22.9051L20.481 22.1293L20.1448 22.4027L20.1144 22.835L21.1119 22.9051ZM18.9639 27.3783L19.2667 28.3313L19.2741 28.329L19.2814 28.3265L18.9639 27.3783ZM18.9624 27.3788L19.2651 28.3319L19.2652 28.3318L18.9624 27.3788ZM17.5144 27.3783L17.8344 26.4308L17.8329 26.4303L17.5144 27.3783ZM14.5607 26.2157C15.0467 26.2157 15.526 26.1856 15.9966 26.1269L15.7492 24.1423C15.3605 24.1907 14.9638 24.2157 14.5607 24.2157V26.2157ZM13.1141 26.1256C13.5881 26.1851 14.0709 26.2157 14.5607 26.2157V24.2157C14.1544 24.2157 13.7548 24.1903 13.3633 24.1412L13.1141 26.1256ZM12.2548 24.9546C12.0898 25.8628 11.661 26.3018 11.2785 26.4303L11.9154 28.3262C13.221 27.8876 13.978 26.6586 14.2226 25.3121L12.2548 24.9546ZM11.277 26.4308C11.1003 26.4905 10.9088 26.4985 10.7371 26.4813C10.5697 26.4645 10.4575 26.4275 10.4517 26.4257L9.84626 28.3318C9.95286 28.3657 10.892 28.6718 11.9169 28.3257L11.277 26.4308ZM10.4512 26.4255L10.4497 26.425L9.84523 28.3315L9.84674 28.332L10.4512 26.4255ZM10.465 26.43C10.0862 26.3032 9.73578 25.9324 9.4569 25.2066C9.1837 24.4957 9.05165 23.6209 8.9962 22.8267L7.00106 22.966C7.06228 23.843 7.21351 24.9443 7.58999 25.924C7.96079 26.889 8.62649 27.9236 9.82995 28.3265L10.465 26.43ZM5.04526 21.0756C5.67594 22.0572 6.46112 22.933 7.3667 23.6714L8.63056 22.1214C7.88624 21.5145 7.24306 20.7963 6.72788 19.9945L5.04526 21.0756ZM4.91375 20.3035C4.86457 20.5101 4.82618 20.6971 4.79389 20.8541L6.7529 21.2569C6.78562 21.0978 6.8183 20.9392 6.85938 20.7666L4.91375 20.3035ZM4.79389 20.8541C4.75928 21.0224 4.73393 21.1446 4.70681 21.2507C4.68039 21.3541 4.65909 21.414 4.64237 21.4512C4.62777 21.4836 4.61849 21.4946 4.61484 21.4988C4.61103 21.5031 4.5957 21.5201 4.55083 21.5473L5.58925 23.2566C6.49843 22.7043 6.63128 21.8484 6.7529 21.2569L4.79389 20.8541ZM4.55058 21.5475C4.40474 21.6361 4.20116 21.6775 3.97552 21.6763C3.75731 21.6751 3.6019 21.6345 3.6286 21.6414L3.12985 23.5782C3.20497 23.5975 3.53153 23.6739 3.96489 23.6762C4.39084 23.6785 5.00847 23.6097 5.5895 23.2565L4.55058 21.5475ZM3.62837 21.6413C3.15302 21.519 2.91442 21.0957 2.82358 20.9147L1.03593 21.8115C1.1487 22.0363 1.73165 23.2185 3.13008 23.5782L3.62837 21.6413ZM2.82061 20.9088C2.55059 20.3793 2.66928 19.6834 3.08487 18.8988C3.48095 18.151 4.01786 17.5767 4.10269 17.4878L2.65576 16.1071C2.52844 16.2405 1.84226 16.9719 1.31748 17.9627C0.812196 18.9166 0.312223 20.3924 1.0389 21.8174L2.82061 20.9088ZM4.10105 17.4896C4.37588 17.2029 4.66119 16.9667 4.94035 16.7691L3.78465 15.1368C3.4163 15.3976 3.03158 15.7152 2.65741 16.1054L4.10105 17.4896ZM3.33887 15.2715C3.33887 15.5237 3.34764 15.7741 3.36491 16.0223L5.36009 15.8835C5.34603 15.6814 5.33887 15.4773 5.33887 15.2715H3.33887ZM14.5607 4.32715C8.38915 4.32715 3.33887 9.20132 3.33887 15.2715H5.33887C5.33887 10.3574 9.44148 6.32715 14.5607 6.32715V4.32715ZM25.7824 15.2715C25.7824 9.20132 20.7321 4.32715 14.5607 4.32715V6.32715C19.6798 6.32715 23.7824 10.3574 23.7824 15.2715H25.7824ZM25.7554 16.0359C25.7733 15.7832 25.7824 15.5283 25.7824 15.2715H23.7824C23.7824 15.4811 23.775 15.6889 23.7604 15.8946L25.7554 16.0359ZM24.1771 16.7792C24.4507 16.9745 24.7301 17.2073 24.9999 17.489L26.4445 16.1059C26.0776 15.7227 25.7007 15.4095 25.3388 15.1513L24.1771 16.7792ZM25.0148 17.5043C25.0881 17.5777 25.6282 18.1508 26.026 18.8998C26.4422 19.6836 26.5606 20.3791 26.2903 20.9083L28.0715 21.8179C28.7994 20.3926 28.2994 18.9164 27.7923 17.9617C27.2667 16.972 26.5784 16.2396 26.4296 16.0907L25.0148 17.5043ZM26.2871 20.9147C26.1972 21.0939 25.9582 21.5183 25.4817 21.6416L25.9826 23.5779C27.3798 23.2164 27.9624 22.0354 28.0748 21.8114L26.2871 20.9147ZM25.4828 21.6413C25.5095 21.6345 25.3541 21.6751 25.1359 21.6763C24.9102 21.6775 24.7066 21.6361 24.5608 21.5475L23.5219 23.2565C24.1029 23.6097 24.7205 23.6785 25.1465 23.6762C25.5799 23.6739 25.9064 23.5975 25.9815 23.5782L25.4828 21.6413ZM24.5619 21.5481C24.5176 21.5212 24.5026 21.5045 24.4989 21.5002C24.4953 21.4962 24.4861 21.4852 24.4715 21.4528C24.4548 21.4157 24.4336 21.356 24.4072 21.2529C24.3802 21.1471 24.3549 21.0254 24.3203 20.8577L22.3615 21.2614C22.4828 21.8502 22.6157 22.704 23.5208 23.2558L24.5619 21.5481ZM24.3203 20.8577C24.2882 20.7021 24.2502 20.5171 24.2015 20.3128L22.2559 20.776C22.2966 20.9468 22.329 21.1038 22.3615 21.2614L24.3203 20.8577ZM21.7428 23.681C22.6502 22.9432 23.4371 22.0676 24.0694 21.0859L22.388 20.0029C21.8715 20.8048 21.2269 21.5228 20.481 22.1293L21.7428 23.681ZM20.1144 22.835C20.0586 23.6287 19.9261 24.5014 19.653 25.2103C19.3743 25.9338 19.0245 26.3034 18.6464 26.43L19.2814 28.3265C20.4828 27.9243 21.1483 26.8925 21.5194 25.9292C21.896 24.9514 22.0478 23.852 22.1095 22.9753L20.1144 22.835ZM18.6611 26.4252L18.6596 26.4257L19.2652 28.3318L19.2667 28.3313L18.6611 26.4252ZM18.6597 26.4257C18.6539 26.4275 18.5416 26.4645 18.3743 26.4813C18.2026 26.4985 18.0111 26.4905 17.8344 26.4308L17.1945 28.3257C18.2194 28.6718 19.1585 28.3657 19.2651 28.3319L18.6597 26.4257ZM17.8329 26.4303C17.4505 26.3019 17.0219 25.8631 16.8567 24.9556L14.8891 25.3136C15.1339 26.6594 15.8909 27.8878 17.196 28.3262L17.8329 26.4303Z" fill="white" mask="url(#path-7-outside-1_49_374)"/>
<path d="M14.561 20.5002C18.3211 20.5002 21.3691 18.1591 21.3691 15.2711C21.3691 12.3831 18.3211 10.042 14.561 10.042C10.801 10.042 7.75293 12.3831 7.75293 15.2711C7.75293 18.1591 10.801 20.5002 14.561 20.5002Z" fill="white"/>
<path d="M11.644 16.5969C12.4575 16.5969 13.117 15.7386 13.117 14.6798C13.117 13.621 12.4575 12.7627 11.644 12.7627C10.8306 12.7627 10.1711 13.621 10.1711 14.6798C10.1711 15.7386 10.8306 16.5969 11.644 16.5969Z" fill="#131313"/>
<path d="M17.2284 16.5969C18.0419 16.5969 18.7014 15.7386 18.7014 14.6798C18.7014 13.621 18.0419 12.7627 17.2284 12.7627C16.4149 12.7627 15.7554 13.621 15.7554 14.6798C15.7554 15.7386 16.4149 16.5969 17.2284 16.5969Z" fill="#131313"/>
</svg>
